G75*
%MOIN*%
%OFA0B0*%
%FSLAX25Y25*%
%IPPOS*%
%LPD*%
%AMOC8*
5,1,8,0,0,1.08239X$1,22.5*
%
%ADD10C,0.00000*%
%ADD11C,0.00875*%
%ADD12R,0.06000X0.06000*%
%ADD13C,0.06000*%
%ADD14R,0.05315X0.02362*%
%ADD15R,0.07874X0.04724*%
%ADD16R,0.01969X0.01378*%
%ADD17C,0.00700*%
%ADD18C,0.01200*%
%ADD19C,0.02400*%
%ADD20C,0.00800*%
D10*
X0001350Y0002094D02*
X0001350Y0067055D01*
X0101035Y0067055D01*
X0101035Y0002094D01*
X0001350Y0002094D01*
X0005287Y0024929D02*
X0005289Y0025082D01*
X0005295Y0025236D01*
X0005305Y0025389D01*
X0005319Y0025541D01*
X0005337Y0025694D01*
X0005359Y0025845D01*
X0005384Y0025996D01*
X0005414Y0026147D01*
X0005448Y0026297D01*
X0005485Y0026445D01*
X0005526Y0026593D01*
X0005571Y0026739D01*
X0005620Y0026885D01*
X0005673Y0027029D01*
X0005729Y0027171D01*
X0005789Y0027312D01*
X0005853Y0027452D01*
X0005920Y0027590D01*
X0005991Y0027726D01*
X0006066Y0027860D01*
X0006143Y0027992D01*
X0006225Y0028122D01*
X0006309Y0028250D01*
X0006397Y0028376D01*
X0006488Y0028499D01*
X0006582Y0028620D01*
X0006680Y0028738D01*
X0006780Y0028854D01*
X0006884Y0028967D01*
X0006990Y0029078D01*
X0007099Y0029186D01*
X0007211Y0029291D01*
X0007325Y0029392D01*
X0007443Y0029491D01*
X0007562Y0029587D01*
X0007684Y0029680D01*
X0007809Y0029769D01*
X0007936Y0029856D01*
X0008065Y0029938D01*
X0008196Y0030018D01*
X0008329Y0030094D01*
X0008464Y0030167D01*
X0008601Y0030236D01*
X0008740Y0030301D01*
X0008880Y0030363D01*
X0009022Y0030421D01*
X0009165Y0030476D01*
X0009310Y0030527D01*
X0009456Y0030574D01*
X0009603Y0030617D01*
X0009751Y0030656D01*
X0009900Y0030692D01*
X0010050Y0030723D01*
X0010201Y0030751D01*
X0010352Y0030775D01*
X0010505Y0030795D01*
X0010657Y0030811D01*
X0010810Y0030823D01*
X0010963Y0030831D01*
X0011116Y0030835D01*
X0011270Y0030835D01*
X0011423Y0030831D01*
X0011576Y0030823D01*
X0011729Y0030811D01*
X0011881Y0030795D01*
X0012034Y0030775D01*
X0012185Y0030751D01*
X0012336Y0030723D01*
X0012486Y0030692D01*
X0012635Y0030656D01*
X0012783Y0030617D01*
X0012930Y0030574D01*
X0013076Y0030527D01*
X0013221Y0030476D01*
X0013364Y0030421D01*
X0013506Y0030363D01*
X0013646Y0030301D01*
X0013785Y0030236D01*
X0013922Y0030167D01*
X0014057Y0030094D01*
X0014190Y0030018D01*
X0014321Y0029938D01*
X0014450Y0029856D01*
X0014577Y0029769D01*
X0014702Y0029680D01*
X0014824Y0029587D01*
X0014943Y0029491D01*
X0015061Y0029392D01*
X0015175Y0029291D01*
X0015287Y0029186D01*
X0015396Y0029078D01*
X0015502Y0028967D01*
X0015606Y0028854D01*
X0015706Y0028738D01*
X0015804Y0028620D01*
X0015898Y0028499D01*
X0015989Y0028376D01*
X0016077Y0028250D01*
X0016161Y0028122D01*
X0016243Y0027992D01*
X0016320Y0027860D01*
X0016395Y0027726D01*
X0016466Y0027590D01*
X0016533Y0027452D01*
X0016597Y0027312D01*
X0016657Y0027171D01*
X0016713Y0027029D01*
X0016766Y0026885D01*
X0016815Y0026739D01*
X0016860Y0026593D01*
X0016901Y0026445D01*
X0016938Y0026297D01*
X0016972Y0026147D01*
X0017002Y0025996D01*
X0017027Y0025845D01*
X0017049Y0025694D01*
X0017067Y0025541D01*
X0017081Y0025389D01*
X0017091Y0025236D01*
X0017097Y0025082D01*
X0017099Y0024929D01*
X0017097Y0024776D01*
X0017091Y0024622D01*
X0017081Y0024469D01*
X0017067Y0024317D01*
X0017049Y0024164D01*
X0017027Y0024013D01*
X0017002Y0023862D01*
X0016972Y0023711D01*
X0016938Y0023561D01*
X0016901Y0023413D01*
X0016860Y0023265D01*
X0016815Y0023119D01*
X0016766Y0022973D01*
X0016713Y0022829D01*
X0016657Y0022687D01*
X0016597Y0022546D01*
X0016533Y0022406D01*
X0016466Y0022268D01*
X0016395Y0022132D01*
X0016320Y0021998D01*
X0016243Y0021866D01*
X0016161Y0021736D01*
X0016077Y0021608D01*
X0015989Y0021482D01*
X0015898Y0021359D01*
X0015804Y0021238D01*
X0015706Y0021120D01*
X0015606Y0021004D01*
X0015502Y0020891D01*
X0015396Y0020780D01*
X0015287Y0020672D01*
X0015175Y0020567D01*
X0015061Y0020466D01*
X0014943Y0020367D01*
X0014824Y0020271D01*
X0014702Y0020178D01*
X0014577Y0020089D01*
X0014450Y0020002D01*
X0014321Y0019920D01*
X0014190Y0019840D01*
X0014057Y0019764D01*
X0013922Y0019691D01*
X0013785Y0019622D01*
X0013646Y0019557D01*
X0013506Y0019495D01*
X0013364Y0019437D01*
X0013221Y0019382D01*
X0013076Y0019331D01*
X0012930Y0019284D01*
X0012783Y0019241D01*
X0012635Y0019202D01*
X0012486Y0019166D01*
X0012336Y0019135D01*
X0012185Y0019107D01*
X0012034Y0019083D01*
X0011881Y0019063D01*
X0011729Y0019047D01*
X0011576Y0019035D01*
X0011423Y0019027D01*
X0011270Y0019023D01*
X0011116Y0019023D01*
X0010963Y0019027D01*
X0010810Y0019035D01*
X0010657Y0019047D01*
X0010505Y0019063D01*
X0010352Y0019083D01*
X0010201Y0019107D01*
X0010050Y0019135D01*
X0009900Y0019166D01*
X0009751Y0019202D01*
X0009603Y0019241D01*
X0009456Y0019284D01*
X0009310Y0019331D01*
X0009165Y0019382D01*
X0009022Y0019437D01*
X0008880Y0019495D01*
X0008740Y0019557D01*
X0008601Y0019622D01*
X0008464Y0019691D01*
X0008329Y0019764D01*
X0008196Y0019840D01*
X0008065Y0019920D01*
X0007936Y0020002D01*
X0007809Y0020089D01*
X0007684Y0020178D01*
X0007562Y0020271D01*
X0007443Y0020367D01*
X0007325Y0020466D01*
X0007211Y0020567D01*
X0007099Y0020672D01*
X0006990Y0020780D01*
X0006884Y0020891D01*
X0006780Y0021004D01*
X0006680Y0021120D01*
X0006582Y0021238D01*
X0006488Y0021359D01*
X0006397Y0021482D01*
X0006309Y0021608D01*
X0006225Y0021736D01*
X0006143Y0021866D01*
X0006066Y0021998D01*
X0005991Y0022132D01*
X0005920Y0022268D01*
X0005853Y0022406D01*
X0005789Y0022546D01*
X0005729Y0022687D01*
X0005673Y0022829D01*
X0005620Y0022973D01*
X0005571Y0023119D01*
X0005526Y0023265D01*
X0005485Y0023413D01*
X0005448Y0023561D01*
X0005414Y0023711D01*
X0005384Y0023862D01*
X0005359Y0024013D01*
X0005337Y0024164D01*
X0005319Y0024317D01*
X0005305Y0024469D01*
X0005295Y0024622D01*
X0005289Y0024776D01*
X0005287Y0024929D01*
X0085287Y0024929D02*
X0085289Y0025082D01*
X0085295Y0025236D01*
X0085305Y0025389D01*
X0085319Y0025541D01*
X0085337Y0025694D01*
X0085359Y0025845D01*
X0085384Y0025996D01*
X0085414Y0026147D01*
X0085448Y0026297D01*
X0085485Y0026445D01*
X0085526Y0026593D01*
X0085571Y0026739D01*
X0085620Y0026885D01*
X0085673Y0027029D01*
X0085729Y0027171D01*
X0085789Y0027312D01*
X0085853Y0027452D01*
X0085920Y0027590D01*
X0085991Y0027726D01*
X0086066Y0027860D01*
X0086143Y0027992D01*
X0086225Y0028122D01*
X0086309Y0028250D01*
X0086397Y0028376D01*
X0086488Y0028499D01*
X0086582Y0028620D01*
X0086680Y0028738D01*
X0086780Y0028854D01*
X0086884Y0028967D01*
X0086990Y0029078D01*
X0087099Y0029186D01*
X0087211Y0029291D01*
X0087325Y0029392D01*
X0087443Y0029491D01*
X0087562Y0029587D01*
X0087684Y0029680D01*
X0087809Y0029769D01*
X0087936Y0029856D01*
X0088065Y0029938D01*
X0088196Y0030018D01*
X0088329Y0030094D01*
X0088464Y0030167D01*
X0088601Y0030236D01*
X0088740Y0030301D01*
X0088880Y0030363D01*
X0089022Y0030421D01*
X0089165Y0030476D01*
X0089310Y0030527D01*
X0089456Y0030574D01*
X0089603Y0030617D01*
X0089751Y0030656D01*
X0089900Y0030692D01*
X0090050Y0030723D01*
X0090201Y0030751D01*
X0090352Y0030775D01*
X0090505Y0030795D01*
X0090657Y0030811D01*
X0090810Y0030823D01*
X0090963Y0030831D01*
X0091116Y0030835D01*
X0091270Y0030835D01*
X0091423Y0030831D01*
X0091576Y0030823D01*
X0091729Y0030811D01*
X0091881Y0030795D01*
X0092034Y0030775D01*
X0092185Y0030751D01*
X0092336Y0030723D01*
X0092486Y0030692D01*
X0092635Y0030656D01*
X0092783Y0030617D01*
X0092930Y0030574D01*
X0093076Y0030527D01*
X0093221Y0030476D01*
X0093364Y0030421D01*
X0093506Y0030363D01*
X0093646Y0030301D01*
X0093785Y0030236D01*
X0093922Y0030167D01*
X0094057Y0030094D01*
X0094190Y0030018D01*
X0094321Y0029938D01*
X0094450Y0029856D01*
X0094577Y0029769D01*
X0094702Y0029680D01*
X0094824Y0029587D01*
X0094943Y0029491D01*
X0095061Y0029392D01*
X0095175Y0029291D01*
X0095287Y0029186D01*
X0095396Y0029078D01*
X0095502Y0028967D01*
X0095606Y0028854D01*
X0095706Y0028738D01*
X0095804Y0028620D01*
X0095898Y0028499D01*
X0095989Y0028376D01*
X0096077Y0028250D01*
X0096161Y0028122D01*
X0096243Y0027992D01*
X0096320Y0027860D01*
X0096395Y0027726D01*
X0096466Y0027590D01*
X0096533Y0027452D01*
X0096597Y0027312D01*
X0096657Y0027171D01*
X0096713Y0027029D01*
X0096766Y0026885D01*
X0096815Y0026739D01*
X0096860Y0026593D01*
X0096901Y0026445D01*
X0096938Y0026297D01*
X0096972Y0026147D01*
X0097002Y0025996D01*
X0097027Y0025845D01*
X0097049Y0025694D01*
X0097067Y0025541D01*
X0097081Y0025389D01*
X0097091Y0025236D01*
X0097097Y0025082D01*
X0097099Y0024929D01*
X0097097Y0024776D01*
X0097091Y0024622D01*
X0097081Y0024469D01*
X0097067Y0024317D01*
X0097049Y0024164D01*
X0097027Y0024013D01*
X0097002Y0023862D01*
X0096972Y0023711D01*
X0096938Y0023561D01*
X0096901Y0023413D01*
X0096860Y0023265D01*
X0096815Y0023119D01*
X0096766Y0022973D01*
X0096713Y0022829D01*
X0096657Y0022687D01*
X0096597Y0022546D01*
X0096533Y0022406D01*
X0096466Y0022268D01*
X0096395Y0022132D01*
X0096320Y0021998D01*
X0096243Y0021866D01*
X0096161Y0021736D01*
X0096077Y0021608D01*
X0095989Y0021482D01*
X0095898Y0021359D01*
X0095804Y0021238D01*
X0095706Y0021120D01*
X0095606Y0021004D01*
X0095502Y0020891D01*
X0095396Y0020780D01*
X0095287Y0020672D01*
X0095175Y0020567D01*
X0095061Y0020466D01*
X0094943Y0020367D01*
X0094824Y0020271D01*
X0094702Y0020178D01*
X0094577Y0020089D01*
X0094450Y0020002D01*
X0094321Y0019920D01*
X0094190Y0019840D01*
X0094057Y0019764D01*
X0093922Y0019691D01*
X0093785Y0019622D01*
X0093646Y0019557D01*
X0093506Y0019495D01*
X0093364Y0019437D01*
X0093221Y0019382D01*
X0093076Y0019331D01*
X0092930Y0019284D01*
X0092783Y0019241D01*
X0092635Y0019202D01*
X0092486Y0019166D01*
X0092336Y0019135D01*
X0092185Y0019107D01*
X0092034Y0019083D01*
X0091881Y0019063D01*
X0091729Y0019047D01*
X0091576Y0019035D01*
X0091423Y0019027D01*
X0091270Y0019023D01*
X0091116Y0019023D01*
X0090963Y0019027D01*
X0090810Y0019035D01*
X0090657Y0019047D01*
X0090505Y0019063D01*
X0090352Y0019083D01*
X0090201Y0019107D01*
X0090050Y0019135D01*
X0089900Y0019166D01*
X0089751Y0019202D01*
X0089603Y0019241D01*
X0089456Y0019284D01*
X0089310Y0019331D01*
X0089165Y0019382D01*
X0089022Y0019437D01*
X0088880Y0019495D01*
X0088740Y0019557D01*
X0088601Y0019622D01*
X0088464Y0019691D01*
X0088329Y0019764D01*
X0088196Y0019840D01*
X0088065Y0019920D01*
X0087936Y0020002D01*
X0087809Y0020089D01*
X0087684Y0020178D01*
X0087562Y0020271D01*
X0087443Y0020367D01*
X0087325Y0020466D01*
X0087211Y0020567D01*
X0087099Y0020672D01*
X0086990Y0020780D01*
X0086884Y0020891D01*
X0086780Y0021004D01*
X0086680Y0021120D01*
X0086582Y0021238D01*
X0086488Y0021359D01*
X0086397Y0021482D01*
X0086309Y0021608D01*
X0086225Y0021736D01*
X0086143Y0021866D01*
X0086066Y0021998D01*
X0085991Y0022132D01*
X0085920Y0022268D01*
X0085853Y0022406D01*
X0085789Y0022546D01*
X0085729Y0022687D01*
X0085673Y0022829D01*
X0085620Y0022973D01*
X0085571Y0023119D01*
X0085526Y0023265D01*
X0085485Y0023413D01*
X0085448Y0023561D01*
X0085414Y0023711D01*
X0085384Y0023862D01*
X0085359Y0024013D01*
X0085337Y0024164D01*
X0085319Y0024317D01*
X0085305Y0024469D01*
X0085295Y0024622D01*
X0085289Y0024776D01*
X0085287Y0024929D01*
D11*
X0065237Y0038081D02*
X0065237Y0040707D01*
X0067863Y0040707D01*
X0067863Y0038081D01*
X0065237Y0038081D01*
X0065237Y0038912D02*
X0067863Y0038912D01*
X0067863Y0039743D02*
X0065237Y0039743D01*
X0065237Y0040574D02*
X0067863Y0040574D01*
X0065237Y0044081D02*
X0065237Y0046707D01*
X0067863Y0046707D01*
X0067863Y0044081D01*
X0065237Y0044081D01*
X0065237Y0044912D02*
X0067863Y0044912D01*
X0067863Y0045743D02*
X0065237Y0045743D01*
X0065237Y0046574D02*
X0067863Y0046574D01*
X0059321Y0046752D02*
X0059321Y0044126D01*
X0059321Y0046752D02*
X0061947Y0046752D01*
X0061947Y0044126D01*
X0059321Y0044126D01*
X0059321Y0044957D02*
X0061947Y0044957D01*
X0061947Y0045788D02*
X0059321Y0045788D01*
X0059321Y0046619D02*
X0061947Y0046619D01*
X0059321Y0040752D02*
X0059321Y0038126D01*
X0059321Y0040752D02*
X0061947Y0040752D01*
X0061947Y0038126D01*
X0059321Y0038126D01*
X0059321Y0038957D02*
X0061947Y0038957D01*
X0061947Y0039788D02*
X0059321Y0039788D01*
X0059321Y0040619D02*
X0061947Y0040619D01*
X0042263Y0048707D02*
X0039637Y0048707D01*
X0042263Y0048707D02*
X0042263Y0046081D01*
X0039637Y0046081D01*
X0039637Y0048707D01*
X0039637Y0046912D02*
X0042263Y0046912D01*
X0042263Y0047743D02*
X0039637Y0047743D01*
X0039637Y0048574D02*
X0042263Y0048574D01*
X0042240Y0052848D02*
X0039614Y0052848D01*
X0039614Y0055474D01*
X0042240Y0055474D01*
X0042240Y0052848D01*
X0042240Y0053679D02*
X0039614Y0053679D01*
X0039614Y0054510D02*
X0042240Y0054510D01*
X0042240Y0055341D02*
X0039614Y0055341D01*
X0036240Y0052848D02*
X0033614Y0052848D01*
X0033614Y0055474D01*
X0036240Y0055474D01*
X0036240Y0052848D01*
X0036240Y0053679D02*
X0033614Y0053679D01*
X0033614Y0054510D02*
X0036240Y0054510D01*
X0036240Y0055341D02*
X0033614Y0055341D01*
X0033635Y0059447D02*
X0036261Y0059447D01*
X0033635Y0059447D02*
X0033635Y0062073D01*
X0036261Y0062073D01*
X0036261Y0059447D01*
X0036261Y0060278D02*
X0033635Y0060278D01*
X0033635Y0061109D02*
X0036261Y0061109D01*
X0036261Y0061940D02*
X0033635Y0061940D01*
X0039635Y0059447D02*
X0042261Y0059447D01*
X0039635Y0059447D02*
X0039635Y0062073D01*
X0042261Y0062073D01*
X0042261Y0059447D01*
X0042261Y0060278D02*
X0039635Y0060278D01*
X0039635Y0061109D02*
X0042261Y0061109D01*
X0042261Y0061940D02*
X0039635Y0061940D01*
X0036263Y0048707D02*
X0033637Y0048707D01*
X0036263Y0048707D02*
X0036263Y0046081D01*
X0033637Y0046081D01*
X0033637Y0048707D01*
X0033637Y0046912D02*
X0036263Y0046912D01*
X0036263Y0047743D02*
X0033637Y0047743D01*
X0033637Y0048574D02*
X0036263Y0048574D01*
D12*
X0025563Y0008000D03*
D13*
X0035563Y0008000D03*
X0045563Y0008000D03*
X0055563Y0008000D03*
X0065563Y0008000D03*
X0075563Y0008000D03*
D14*
X0080563Y0045598D03*
X0080563Y0049535D03*
X0080563Y0053472D03*
X0080563Y0057409D03*
X0021822Y0057409D03*
X0021822Y0053472D03*
X0021822Y0049535D03*
X0021822Y0045598D03*
D15*
X0007354Y0040480D03*
X0007354Y0062528D03*
X0095031Y0062528D03*
X0095031Y0040480D03*
D16*
X0055173Y0051575D03*
X0055173Y0054134D03*
X0055173Y0056693D03*
X0055173Y0059252D03*
X0048874Y0059252D03*
X0048874Y0056693D03*
X0048874Y0054134D03*
X0048874Y0051575D03*
D17*
X0047165Y0050125D02*
X0047454Y0049836D01*
X0049700Y0049836D01*
X0049700Y0011812D01*
X0050549Y0010963D01*
X0051862Y0009650D01*
X0051513Y0008806D01*
X0051513Y0007194D01*
X0052129Y0005706D01*
X0053268Y0004567D01*
X0053563Y0004444D01*
X0047562Y0004444D01*
X0047857Y0004567D01*
X0048996Y0005706D01*
X0049613Y0007194D01*
X0049613Y0008806D01*
X0048996Y0010294D01*
X0047857Y0011433D01*
X0047013Y0011783D01*
X0047013Y0041050D01*
X0047813Y0041850D01*
X0047813Y0043714D01*
X0046495Y0045032D01*
X0045363Y0045032D01*
X0043750Y0046645D01*
X0043750Y0048144D01*
X0045731Y0050125D01*
X0047165Y0050125D01*
X0045199Y0049593D02*
X0049700Y0049593D01*
X0049700Y0048895D02*
X0044501Y0048895D01*
X0043802Y0048196D02*
X0049700Y0048196D01*
X0049700Y0047498D02*
X0043750Y0047498D01*
X0043750Y0046799D02*
X0049700Y0046799D01*
X0049700Y0046101D02*
X0044294Y0046101D01*
X0044993Y0045402D02*
X0049700Y0045402D01*
X0049700Y0044704D02*
X0046823Y0044704D01*
X0047521Y0044005D02*
X0049700Y0044005D01*
X0049700Y0043307D02*
X0047813Y0043307D01*
X0047813Y0042608D02*
X0049700Y0042608D01*
X0049700Y0041910D02*
X0047813Y0041910D01*
X0047174Y0041211D02*
X0049700Y0041211D01*
X0049700Y0040513D02*
X0047013Y0040513D01*
X0047013Y0039814D02*
X0049700Y0039814D01*
X0049700Y0039116D02*
X0047013Y0039116D01*
X0047013Y0038417D02*
X0049700Y0038417D01*
X0049700Y0037719D02*
X0047013Y0037719D01*
X0047013Y0037020D02*
X0049700Y0037020D01*
X0049700Y0036322D02*
X0047013Y0036322D01*
X0047013Y0035623D02*
X0049700Y0035623D01*
X0049700Y0034925D02*
X0047013Y0034925D01*
X0047013Y0034226D02*
X0049700Y0034226D01*
X0049700Y0033527D02*
X0047013Y0033527D01*
X0047013Y0032829D02*
X0049700Y0032829D01*
X0049700Y0032130D02*
X0047013Y0032130D01*
X0047013Y0031432D02*
X0049700Y0031432D01*
X0049700Y0030733D02*
X0047013Y0030733D01*
X0047013Y0030035D02*
X0049700Y0030035D01*
X0049700Y0029336D02*
X0047013Y0029336D01*
X0047013Y0028638D02*
X0049700Y0028638D01*
X0049700Y0027939D02*
X0047013Y0027939D01*
X0047013Y0027241D02*
X0049700Y0027241D01*
X0049700Y0026542D02*
X0047013Y0026542D01*
X0047013Y0025844D02*
X0049700Y0025844D01*
X0049700Y0025145D02*
X0047013Y0025145D01*
X0047013Y0024447D02*
X0049700Y0024447D01*
X0049700Y0023748D02*
X0047013Y0023748D01*
X0047013Y0023050D02*
X0049700Y0023050D01*
X0049700Y0022351D02*
X0047013Y0022351D01*
X0047013Y0021653D02*
X0049700Y0021653D01*
X0049700Y0020954D02*
X0047013Y0020954D01*
X0047013Y0020256D02*
X0049700Y0020256D01*
X0049700Y0019557D02*
X0047013Y0019557D01*
X0047013Y0018859D02*
X0049700Y0018859D01*
X0049700Y0018160D02*
X0047013Y0018160D01*
X0047013Y0017462D02*
X0049700Y0017462D01*
X0049700Y0016763D02*
X0047013Y0016763D01*
X0047013Y0016065D02*
X0049700Y0016065D01*
X0049700Y0015366D02*
X0047013Y0015366D01*
X0047013Y0014668D02*
X0049700Y0014668D01*
X0049700Y0013969D02*
X0047013Y0013969D01*
X0047013Y0013271D02*
X0049700Y0013271D01*
X0049700Y0012572D02*
X0047013Y0012572D01*
X0047013Y0011874D02*
X0049700Y0011874D01*
X0050337Y0011175D02*
X0048115Y0011175D01*
X0048814Y0010477D02*
X0051035Y0010477D01*
X0051734Y0009778D02*
X0049210Y0009778D01*
X0049499Y0009080D02*
X0051626Y0009080D01*
X0051513Y0008381D02*
X0049613Y0008381D01*
X0049613Y0007683D02*
X0051513Y0007683D01*
X0051600Y0006984D02*
X0049525Y0006984D01*
X0049236Y0006286D02*
X0051889Y0006286D01*
X0052248Y0005587D02*
X0048877Y0005587D01*
X0048179Y0004889D02*
X0052946Y0004889D01*
X0057562Y0004444D02*
X0057857Y0004567D01*
X0058996Y0005706D01*
X0059613Y0007194D01*
X0059613Y0008806D01*
X0058996Y0010294D01*
X0057857Y0011433D01*
X0056368Y0012050D01*
X0054757Y0012050D01*
X0053913Y0011700D01*
X0052600Y0013013D01*
X0052600Y0048194D01*
X0052649Y0048144D01*
X0058398Y0048144D01*
X0058505Y0048038D01*
X0057834Y0047367D01*
X0057834Y0043510D01*
X0058706Y0042639D01*
X0062563Y0042639D01*
X0063434Y0043510D01*
X0063434Y0047367D01*
X0062657Y0048144D01*
X0064571Y0048144D01*
X0063750Y0047323D01*
X0063750Y0043466D01*
X0064621Y0042594D01*
X0068479Y0042594D01*
X0069350Y0043466D01*
X0069350Y0043944D01*
X0070051Y0043944D01*
X0070651Y0044544D01*
X0071782Y0044544D01*
X0073100Y0045862D01*
X0073100Y0047726D01*
X0071782Y0049044D01*
X0069918Y0049044D01*
X0068773Y0047900D01*
X0068529Y0048144D01*
X0068651Y0048144D01*
X0069500Y0048994D01*
X0072529Y0052022D01*
X0076855Y0052022D01*
X0076855Y0051856D01*
X0077208Y0051504D01*
X0076855Y0051151D01*
X0076855Y0047919D01*
X0076995Y0047779D01*
X0076825Y0047608D01*
X0076647Y0047301D01*
X0076555Y0046957D01*
X0076555Y0045839D01*
X0080322Y0045839D01*
X0080322Y0045358D01*
X0076555Y0045358D01*
X0076555Y0044240D01*
X0076647Y0043896D01*
X0076825Y0043588D01*
X0077076Y0043337D01*
X0077384Y0043159D01*
X0077727Y0043067D01*
X0080322Y0043067D01*
X0080322Y0045358D01*
X0080803Y0045358D01*
X0080803Y0043067D01*
X0083398Y0043067D01*
X0083741Y0043159D01*
X0084049Y0043337D01*
X0084300Y0043588D01*
X0084478Y0043896D01*
X0084570Y0044240D01*
X0084570Y0045358D01*
X0080803Y0045358D01*
X0080803Y0045839D01*
X0084570Y0045839D01*
X0084570Y0046957D01*
X0084478Y0047301D01*
X0084453Y0047344D01*
X0085882Y0047344D01*
X0087200Y0048662D01*
X0087200Y0050526D01*
X0085882Y0051844D01*
X0084258Y0051844D01*
X0084270Y0051856D01*
X0084270Y0055088D01*
X0083918Y0055441D01*
X0084270Y0055793D01*
X0084270Y0059025D01*
X0083655Y0059641D01*
X0077470Y0059641D01*
X0076855Y0059025D01*
X0076855Y0058859D01*
X0074597Y0058859D01*
X0073797Y0059659D01*
X0071933Y0059659D01*
X0070615Y0058341D01*
X0070615Y0057210D01*
X0066430Y0053025D01*
X0057207Y0053025D01*
X0057207Y0055258D01*
X0057051Y0055413D01*
X0057207Y0055569D01*
X0057207Y0057704D01*
X0057237Y0057734D01*
X0057415Y0058042D01*
X0057507Y0058385D01*
X0057507Y0059252D01*
X0057507Y0060119D01*
X0057415Y0060462D01*
X0057237Y0060770D01*
X0056986Y0061021D01*
X0056678Y0061199D01*
X0056335Y0061291D01*
X0055173Y0061291D01*
X0055173Y0059252D01*
X0057507Y0059252D01*
X0055173Y0059252D01*
X0055173Y0059252D01*
X0055173Y0059252D01*
X0055173Y0061291D01*
X0054011Y0061291D01*
X0053667Y0061199D01*
X0053360Y0061021D01*
X0053108Y0060770D01*
X0052931Y0060462D01*
X0052839Y0060119D01*
X0052839Y0059252D01*
X0055173Y0059252D01*
X0055173Y0059252D01*
X0052839Y0059252D01*
X0052839Y0058385D01*
X0052904Y0058143D01*
X0052448Y0058143D01*
X0051208Y0056903D01*
X0051208Y0057560D01*
X0051116Y0057903D01*
X0050938Y0058211D01*
X0050908Y0058241D01*
X0050908Y0060376D01*
X0050293Y0060991D01*
X0047454Y0060991D01*
X0047365Y0060902D01*
X0043748Y0060902D01*
X0043748Y0062688D01*
X0042877Y0063560D01*
X0039020Y0063560D01*
X0038148Y0062688D01*
X0038148Y0058831D01*
X0039020Y0057960D01*
X0039277Y0057960D01*
X0039277Y0056961D01*
X0038999Y0056961D01*
X0038127Y0056089D01*
X0038127Y0053694D01*
X0038027Y0053594D01*
X0038027Y0053811D01*
X0035277Y0053811D01*
X0035277Y0054511D01*
X0034577Y0054511D01*
X0034577Y0057261D01*
X0033379Y0057261D01*
X0032925Y0057139D01*
X0032517Y0056903D01*
X0032184Y0056571D01*
X0031949Y0056163D01*
X0031827Y0055708D01*
X0031827Y0054511D01*
X0034577Y0054511D01*
X0034577Y0053811D01*
X0031827Y0053811D01*
X0031827Y0052851D01*
X0029555Y0055122D01*
X0025496Y0055122D01*
X0025390Y0055229D01*
X0025560Y0055399D01*
X0025738Y0055707D01*
X0025830Y0056051D01*
X0025830Y0057169D01*
X0022063Y0057169D01*
X0022063Y0057650D01*
X0025830Y0057650D01*
X0025830Y0058768D01*
X0025738Y0059112D01*
X0025560Y0059419D01*
X0025309Y0059671D01*
X0025001Y0059849D01*
X0024658Y0059941D01*
X0022063Y0059941D01*
X0022063Y0057650D01*
X0021582Y0057650D01*
X0021582Y0059941D01*
X0018987Y0059941D01*
X0018644Y0059849D01*
X0018336Y0059671D01*
X0018085Y0059419D01*
X0017907Y0059112D01*
X0017815Y0058768D01*
X0017815Y0057650D01*
X0021582Y0057650D01*
X0021582Y0057169D01*
X0017815Y0057169D01*
X0017815Y0056051D01*
X0017907Y0055707D01*
X0018085Y0055399D01*
X0018255Y0055229D01*
X0018115Y0055088D01*
X0018115Y0051856D01*
X0018467Y0051504D01*
X0018115Y0051151D01*
X0018115Y0047919D01*
X0018467Y0047567D01*
X0018115Y0047214D01*
X0018115Y0043982D01*
X0018730Y0043367D01*
X0023200Y0043367D01*
X0023200Y0042263D01*
X0024113Y0041350D01*
X0024113Y0012050D01*
X0022128Y0012050D01*
X0021513Y0011435D01*
X0021513Y0004565D01*
X0021633Y0004444D01*
X0003700Y0004444D01*
X0003700Y0021445D01*
X0004194Y0020253D01*
X0006516Y0017930D01*
X0009550Y0016674D01*
X0012835Y0016674D01*
X0015869Y0017930D01*
X0018191Y0020253D01*
X0019448Y0023287D01*
X0019448Y0026571D01*
X0018191Y0029605D01*
X0015869Y0031928D01*
X0012835Y0033185D01*
X0009550Y0033185D01*
X0006516Y0031928D01*
X0004194Y0029605D01*
X0003700Y0028413D01*
X0003700Y0036768D01*
X0007004Y0036768D01*
X0007004Y0040130D01*
X0007704Y0040130D01*
X0007704Y0036768D01*
X0011469Y0036768D01*
X0011812Y0036860D01*
X0012120Y0037038D01*
X0012371Y0037289D01*
X0012549Y0037597D01*
X0012641Y0037940D01*
X0012641Y0040130D01*
X0007704Y0040130D01*
X0007704Y0040830D01*
X0012641Y0040830D01*
X0012641Y0043020D01*
X0012549Y0043364D01*
X0012371Y0043671D01*
X0012120Y0043923D01*
X0011812Y0044101D01*
X0011469Y0044193D01*
X0007704Y0044193D01*
X0007704Y0040830D01*
X0007004Y0040830D01*
X0007004Y0044193D01*
X0003700Y0044193D01*
X0003700Y0058815D01*
X0007004Y0058815D01*
X0007004Y0062178D01*
X0007704Y0062178D01*
X0007704Y0062878D01*
X0012641Y0062878D01*
X0012641Y0064705D01*
X0089744Y0064705D01*
X0089744Y0062878D01*
X0094681Y0062878D01*
X0094681Y0062178D01*
X0089744Y0062178D01*
X0089744Y0059988D01*
X0089836Y0059644D01*
X0090014Y0059336D01*
X0090265Y0059085D01*
X0090573Y0058907D01*
X0090916Y0058815D01*
X0094681Y0058815D01*
X0094681Y0062178D01*
X0095381Y0062178D01*
X0095381Y0058815D01*
X0098685Y0058815D01*
X0098685Y0044193D01*
X0095381Y0044193D01*
X0095381Y0040830D01*
X0094681Y0040830D01*
X0094681Y0040130D01*
X0095381Y0040130D01*
X0095381Y0036768D01*
X0098685Y0036768D01*
X0098685Y0028413D01*
X0098191Y0029605D01*
X0095869Y0031928D01*
X0092835Y0033185D01*
X0089550Y0033185D01*
X0086516Y0031928D01*
X0084194Y0029605D01*
X0082937Y0026571D01*
X0082937Y0023287D01*
X0084194Y0020253D01*
X0086516Y0017930D01*
X0089550Y0016674D01*
X0092835Y0016674D01*
X0095869Y0017930D01*
X0098191Y0020253D01*
X0098685Y0021445D01*
X0098685Y0004444D01*
X0078069Y0004444D01*
X0078396Y0004682D01*
X0078881Y0005166D01*
X0079283Y0005720D01*
X0079594Y0006330D01*
X0079805Y0006981D01*
X0079911Y0007650D01*
X0075913Y0007650D01*
X0075913Y0008350D01*
X0079911Y0008350D01*
X0079805Y0009019D01*
X0079594Y0009670D01*
X0079283Y0010280D01*
X0078881Y0010834D01*
X0078396Y0011318D01*
X0077842Y0011720D01*
X0077232Y0012031D01*
X0076581Y0012243D01*
X0075913Y0012349D01*
X0075913Y0008350D01*
X0075213Y0008350D01*
X0075213Y0012349D01*
X0074544Y0012243D01*
X0073893Y0012031D01*
X0073283Y0011720D01*
X0072729Y0011318D01*
X0072245Y0010834D01*
X0071842Y0010280D01*
X0071531Y0009670D01*
X0071320Y0009019D01*
X0071214Y0008350D01*
X0075213Y0008350D01*
X0075213Y0007650D01*
X0071214Y0007650D01*
X0071320Y0006981D01*
X0071531Y0006330D01*
X0071842Y0005720D01*
X0072245Y0005166D01*
X0072729Y0004682D01*
X0073056Y0004444D01*
X0067562Y0004444D01*
X0067857Y0004567D01*
X0068996Y0005706D01*
X0069613Y0007194D01*
X0069613Y0008806D01*
X0068996Y0010294D01*
X0067857Y0011433D01*
X0066368Y0012050D01*
X0064757Y0012050D01*
X0063268Y0011433D01*
X0062129Y0010294D01*
X0061513Y0008806D01*
X0061513Y0007194D01*
X0062129Y0005706D01*
X0063268Y0004567D01*
X0063563Y0004444D01*
X0057562Y0004444D01*
X0058179Y0004889D02*
X0062946Y0004889D01*
X0062248Y0005587D02*
X0058877Y0005587D01*
X0059236Y0006286D02*
X0061889Y0006286D01*
X0061600Y0006984D02*
X0059525Y0006984D01*
X0059613Y0007683D02*
X0061513Y0007683D01*
X0061513Y0008381D02*
X0059613Y0008381D01*
X0059499Y0009080D02*
X0061626Y0009080D01*
X0061915Y0009778D02*
X0059210Y0009778D01*
X0058814Y0010477D02*
X0062312Y0010477D01*
X0063010Y0011175D02*
X0058115Y0011175D01*
X0056794Y0011874D02*
X0064331Y0011874D01*
X0066794Y0011874D02*
X0073583Y0011874D01*
X0072586Y0011175D02*
X0068115Y0011175D01*
X0068814Y0010477D02*
X0071985Y0010477D01*
X0071586Y0009778D02*
X0069210Y0009778D01*
X0069499Y0009080D02*
X0071340Y0009080D01*
X0071219Y0008381D02*
X0069613Y0008381D01*
X0069613Y0007683D02*
X0075213Y0007683D01*
X0075213Y0008381D02*
X0075913Y0008381D01*
X0075913Y0007683D02*
X0098685Y0007683D01*
X0098685Y0008381D02*
X0079906Y0008381D01*
X0079786Y0009080D02*
X0098685Y0009080D01*
X0098685Y0009778D02*
X0079539Y0009778D01*
X0079140Y0010477D02*
X0098685Y0010477D01*
X0098685Y0011175D02*
X0078539Y0011175D01*
X0077542Y0011874D02*
X0098685Y0011874D01*
X0098685Y0012572D02*
X0053041Y0012572D01*
X0052600Y0013271D02*
X0098685Y0013271D01*
X0098685Y0013969D02*
X0052600Y0013969D01*
X0052600Y0014668D02*
X0098685Y0014668D01*
X0098685Y0015366D02*
X0052600Y0015366D01*
X0052600Y0016065D02*
X0098685Y0016065D01*
X0098685Y0016763D02*
X0093051Y0016763D01*
X0094737Y0017462D02*
X0098685Y0017462D01*
X0098685Y0018160D02*
X0096099Y0018160D01*
X0096797Y0018859D02*
X0098685Y0018859D01*
X0098685Y0019557D02*
X0097496Y0019557D01*
X0098192Y0020256D02*
X0098685Y0020256D01*
X0098685Y0020954D02*
X0098482Y0020954D01*
X0089334Y0016763D02*
X0052600Y0016763D01*
X0052600Y0017462D02*
X0087648Y0017462D01*
X0086286Y0018160D02*
X0052600Y0018160D01*
X0052600Y0018859D02*
X0085588Y0018859D01*
X0084889Y0019557D02*
X0052600Y0019557D01*
X0052600Y0020256D02*
X0084193Y0020256D01*
X0083903Y0020954D02*
X0052600Y0020954D01*
X0052600Y0021653D02*
X0083614Y0021653D01*
X0083325Y0022351D02*
X0052600Y0022351D01*
X0052600Y0023050D02*
X0083035Y0023050D01*
X0082937Y0023748D02*
X0052600Y0023748D01*
X0052600Y0024447D02*
X0082937Y0024447D01*
X0082937Y0025145D02*
X0052600Y0025145D01*
X0052600Y0025844D02*
X0082937Y0025844D01*
X0082937Y0026542D02*
X0052600Y0026542D01*
X0052600Y0027241D02*
X0083214Y0027241D01*
X0083504Y0027939D02*
X0052600Y0027939D01*
X0052600Y0028638D02*
X0083793Y0028638D01*
X0084082Y0029336D02*
X0052600Y0029336D01*
X0052600Y0030035D02*
X0084623Y0030035D01*
X0085322Y0030733D02*
X0052600Y0030733D01*
X0052600Y0031432D02*
X0086020Y0031432D01*
X0087005Y0032130D02*
X0052600Y0032130D01*
X0052600Y0032829D02*
X0059634Y0032829D01*
X0059718Y0032744D02*
X0058400Y0034063D01*
X0058400Y0035926D01*
X0059112Y0036639D01*
X0058706Y0036639D01*
X0057834Y0037510D01*
X0057834Y0041367D01*
X0058706Y0042239D01*
X0062563Y0042239D01*
X0063434Y0041367D01*
X0063434Y0037510D01*
X0062563Y0036639D01*
X0062188Y0036639D01*
X0062900Y0035926D01*
X0062900Y0034063D01*
X0061582Y0032744D01*
X0059718Y0032744D01*
X0058935Y0033527D02*
X0052600Y0033527D01*
X0052600Y0034226D02*
X0058400Y0034226D01*
X0058400Y0034925D02*
X0052600Y0034925D01*
X0052600Y0035623D02*
X0058400Y0035623D01*
X0058795Y0036322D02*
X0052600Y0036322D01*
X0052600Y0037020D02*
X0058324Y0037020D01*
X0057834Y0037719D02*
X0052600Y0037719D01*
X0052600Y0038417D02*
X0057834Y0038417D01*
X0057834Y0039116D02*
X0052600Y0039116D01*
X0052600Y0039814D02*
X0057834Y0039814D01*
X0057834Y0040513D02*
X0052600Y0040513D01*
X0052600Y0041211D02*
X0057834Y0041211D01*
X0058377Y0041910D02*
X0052600Y0041910D01*
X0052600Y0042608D02*
X0064608Y0042608D01*
X0064621Y0042194D02*
X0063750Y0041323D01*
X0063750Y0037466D01*
X0064621Y0036594D01*
X0065068Y0036594D01*
X0064300Y0035826D01*
X0064300Y0033963D01*
X0065618Y0032644D01*
X0067482Y0032644D01*
X0068800Y0033963D01*
X0068800Y0035826D01*
X0068032Y0036594D01*
X0068479Y0036594D01*
X0069350Y0037466D01*
X0069350Y0041323D01*
X0068479Y0042194D01*
X0064621Y0042194D01*
X0064337Y0041910D02*
X0062892Y0041910D01*
X0063434Y0041211D02*
X0063750Y0041211D01*
X0063750Y0040513D02*
X0063434Y0040513D01*
X0063434Y0039814D02*
X0063750Y0039814D01*
X0063750Y0039116D02*
X0063434Y0039116D01*
X0063434Y0038417D02*
X0063750Y0038417D01*
X0063750Y0037719D02*
X0063434Y0037719D01*
X0062944Y0037020D02*
X0064196Y0037020D01*
X0064795Y0036322D02*
X0062505Y0036322D01*
X0062900Y0035623D02*
X0064300Y0035623D01*
X0064300Y0034925D02*
X0062900Y0034925D01*
X0062900Y0034226D02*
X0064300Y0034226D01*
X0064735Y0033527D02*
X0062365Y0033527D01*
X0061666Y0032829D02*
X0065434Y0032829D01*
X0067666Y0032829D02*
X0088692Y0032829D01*
X0090573Y0036860D02*
X0090916Y0036768D01*
X0094681Y0036768D01*
X0094681Y0040130D01*
X0089744Y0040130D01*
X0089744Y0037940D01*
X0089836Y0037597D01*
X0090014Y0037289D01*
X0090265Y0037038D01*
X0090573Y0036860D01*
X0090296Y0037020D02*
X0068904Y0037020D01*
X0069350Y0037719D02*
X0089804Y0037719D01*
X0089744Y0038417D02*
X0069350Y0038417D01*
X0069350Y0039116D02*
X0089744Y0039116D01*
X0089744Y0039814D02*
X0069350Y0039814D01*
X0069350Y0040513D02*
X0094681Y0040513D01*
X0094681Y0040830D02*
X0089744Y0040830D01*
X0089744Y0043020D01*
X0089836Y0043364D01*
X0090014Y0043671D01*
X0090265Y0043923D01*
X0090573Y0044101D01*
X0090916Y0044193D01*
X0094681Y0044193D01*
X0094681Y0040830D01*
X0094681Y0041211D02*
X0095381Y0041211D01*
X0095381Y0041910D02*
X0094681Y0041910D01*
X0094681Y0042608D02*
X0095381Y0042608D01*
X0095381Y0043307D02*
X0094681Y0043307D01*
X0094681Y0044005D02*
X0095381Y0044005D01*
X0098685Y0044704D02*
X0084570Y0044704D01*
X0084507Y0044005D02*
X0090408Y0044005D01*
X0089821Y0043307D02*
X0083996Y0043307D01*
X0080803Y0043307D02*
X0080322Y0043307D01*
X0080322Y0044005D02*
X0080803Y0044005D01*
X0080803Y0044704D02*
X0080322Y0044704D01*
X0080322Y0045402D02*
X0072640Y0045402D01*
X0073100Y0046101D02*
X0076555Y0046101D01*
X0076555Y0046799D02*
X0073100Y0046799D01*
X0073100Y0047498D02*
X0076761Y0047498D01*
X0076855Y0048196D02*
X0072630Y0048196D01*
X0071932Y0048895D02*
X0076855Y0048895D01*
X0076855Y0049593D02*
X0070099Y0049593D01*
X0069768Y0048895D02*
X0069401Y0048895D01*
X0069070Y0048196D02*
X0068702Y0048196D01*
X0070798Y0050292D02*
X0076855Y0050292D01*
X0076855Y0050990D02*
X0071496Y0050990D01*
X0072195Y0051689D02*
X0077023Y0051689D01*
X0084270Y0052387D02*
X0098685Y0052387D01*
X0098685Y0051689D02*
X0086038Y0051689D01*
X0086736Y0050990D02*
X0098685Y0050990D01*
X0098685Y0050292D02*
X0087200Y0050292D01*
X0087200Y0049593D02*
X0098685Y0049593D01*
X0098685Y0048895D02*
X0087200Y0048895D01*
X0086734Y0048196D02*
X0098685Y0048196D01*
X0098685Y0047498D02*
X0086035Y0047498D01*
X0084570Y0046799D02*
X0098685Y0046799D01*
X0098685Y0046101D02*
X0084570Y0046101D01*
X0080803Y0045402D02*
X0098685Y0045402D01*
X0095381Y0039814D02*
X0094681Y0039814D01*
X0094681Y0039116D02*
X0095381Y0039116D01*
X0095381Y0038417D02*
X0094681Y0038417D01*
X0094681Y0037719D02*
X0095381Y0037719D01*
X0095381Y0037020D02*
X0094681Y0037020D01*
X0098685Y0036322D02*
X0068305Y0036322D01*
X0068800Y0035623D02*
X0098685Y0035623D01*
X0098685Y0034925D02*
X0068800Y0034925D01*
X0068800Y0034226D02*
X0098685Y0034226D01*
X0098685Y0033527D02*
X0068365Y0033527D01*
X0069350Y0041211D02*
X0089744Y0041211D01*
X0089744Y0041910D02*
X0068763Y0041910D01*
X0068492Y0042608D02*
X0089744Y0042608D01*
X0093693Y0032829D02*
X0098685Y0032829D01*
X0098685Y0032130D02*
X0095380Y0032130D01*
X0096365Y0031432D02*
X0098685Y0031432D01*
X0098685Y0030733D02*
X0097063Y0030733D01*
X0097762Y0030035D02*
X0098685Y0030035D01*
X0098685Y0029336D02*
X0098303Y0029336D01*
X0098592Y0028638D02*
X0098685Y0028638D01*
X0077129Y0043307D02*
X0069191Y0043307D01*
X0070111Y0044005D02*
X0076618Y0044005D01*
X0076555Y0044704D02*
X0071941Y0044704D01*
X0063909Y0043307D02*
X0063231Y0043307D01*
X0063434Y0044005D02*
X0063750Y0044005D01*
X0063750Y0044704D02*
X0063434Y0044704D01*
X0063434Y0045402D02*
X0063750Y0045402D01*
X0063750Y0046101D02*
X0063434Y0046101D01*
X0063434Y0046799D02*
X0063750Y0046799D01*
X0063925Y0047498D02*
X0063304Y0047498D01*
X0057965Y0047498D02*
X0052600Y0047498D01*
X0052600Y0046799D02*
X0057834Y0046799D01*
X0057834Y0046101D02*
X0052600Y0046101D01*
X0052600Y0045402D02*
X0057834Y0045402D01*
X0057834Y0044704D02*
X0052600Y0044704D01*
X0052600Y0044005D02*
X0057834Y0044005D01*
X0058038Y0043307D02*
X0052600Y0043307D01*
X0044113Y0041050D02*
X0044113Y0011783D01*
X0043268Y0011433D01*
X0042129Y0010294D01*
X0041513Y0008806D01*
X0041513Y0007194D01*
X0042129Y0005706D01*
X0043268Y0004567D01*
X0043563Y0004444D01*
X0037562Y0004444D01*
X0037857Y0004567D01*
X0038996Y0005706D01*
X0039613Y0007194D01*
X0039613Y0008806D01*
X0038996Y0010294D01*
X0037857Y0011433D01*
X0037013Y0011783D01*
X0037013Y0040682D01*
X0033101Y0044594D01*
X0035417Y0044594D01*
X0038300Y0041711D01*
X0038300Y0038126D01*
X0037700Y0037526D01*
X0037700Y0035663D01*
X0039018Y0034344D01*
X0040882Y0034344D01*
X0042200Y0035663D01*
X0042200Y0037526D01*
X0041600Y0038126D01*
X0041600Y0043078D01*
X0040633Y0044044D01*
X0040083Y0044594D01*
X0041699Y0044594D01*
X0043313Y0042981D01*
X0043313Y0041850D01*
X0044113Y0041050D01*
X0043951Y0041211D02*
X0041600Y0041211D01*
X0041600Y0040513D02*
X0044113Y0040513D01*
X0044113Y0039814D02*
X0041600Y0039814D01*
X0041600Y0039116D02*
X0044113Y0039116D01*
X0044113Y0038417D02*
X0041600Y0038417D01*
X0042008Y0037719D02*
X0044113Y0037719D01*
X0044113Y0037020D02*
X0042200Y0037020D01*
X0042200Y0036322D02*
X0044113Y0036322D01*
X0044113Y0035623D02*
X0042161Y0035623D01*
X0041462Y0034925D02*
X0044113Y0034925D01*
X0044113Y0034226D02*
X0037013Y0034226D01*
X0037013Y0033527D02*
X0044113Y0033527D01*
X0044113Y0032829D02*
X0037013Y0032829D01*
X0037013Y0032130D02*
X0044113Y0032130D01*
X0044113Y0031432D02*
X0037013Y0031432D01*
X0037013Y0030733D02*
X0044113Y0030733D01*
X0044113Y0030035D02*
X0037013Y0030035D01*
X0037013Y0029336D02*
X0044113Y0029336D01*
X0044113Y0028638D02*
X0037013Y0028638D01*
X0037013Y0027939D02*
X0044113Y0027939D01*
X0044113Y0027241D02*
X0037013Y0027241D01*
X0037013Y0026542D02*
X0044113Y0026542D01*
X0044113Y0025844D02*
X0037013Y0025844D01*
X0037013Y0025145D02*
X0044113Y0025145D01*
X0044113Y0024447D02*
X0037013Y0024447D01*
X0037013Y0023748D02*
X0044113Y0023748D01*
X0044113Y0023050D02*
X0037013Y0023050D01*
X0037013Y0022351D02*
X0044113Y0022351D01*
X0044113Y0021653D02*
X0037013Y0021653D01*
X0037013Y0020954D02*
X0044113Y0020954D01*
X0044113Y0020256D02*
X0037013Y0020256D01*
X0037013Y0019557D02*
X0044113Y0019557D01*
X0044113Y0018859D02*
X0037013Y0018859D01*
X0037013Y0018160D02*
X0044113Y0018160D01*
X0044113Y0017462D02*
X0037013Y0017462D01*
X0037013Y0016763D02*
X0044113Y0016763D01*
X0044113Y0016065D02*
X0037013Y0016065D01*
X0037013Y0015366D02*
X0044113Y0015366D01*
X0044113Y0014668D02*
X0037013Y0014668D01*
X0037013Y0013969D02*
X0044113Y0013969D01*
X0044113Y0013271D02*
X0037013Y0013271D01*
X0037013Y0012572D02*
X0044113Y0012572D01*
X0044113Y0011874D02*
X0037013Y0011874D01*
X0038115Y0011175D02*
X0043010Y0011175D01*
X0042312Y0010477D02*
X0038814Y0010477D01*
X0039210Y0009778D02*
X0041915Y0009778D01*
X0041626Y0009080D02*
X0039499Y0009080D01*
X0039613Y0008381D02*
X0041513Y0008381D01*
X0041513Y0007683D02*
X0039613Y0007683D01*
X0039525Y0006984D02*
X0041600Y0006984D01*
X0041889Y0006286D02*
X0039236Y0006286D01*
X0038877Y0005587D02*
X0042248Y0005587D01*
X0042946Y0004889D02*
X0038179Y0004889D01*
X0033563Y0004444D02*
X0029492Y0004444D01*
X0029613Y0004565D01*
X0029613Y0011435D01*
X0028998Y0012050D01*
X0027013Y0012050D01*
X0027013Y0041575D01*
X0027700Y0042263D01*
X0027700Y0044126D01*
X0026382Y0045444D01*
X0025651Y0045444D01*
X0025530Y0045565D01*
X0025530Y0047214D01*
X0025459Y0047285D01*
X0026308Y0047285D01*
X0034113Y0039481D01*
X0034113Y0011783D01*
X0033268Y0011433D01*
X0032129Y0010294D01*
X0031513Y0008806D01*
X0031513Y0007194D01*
X0032129Y0005706D01*
X0033268Y0004567D01*
X0033563Y0004444D01*
X0032946Y0004889D02*
X0029613Y0004889D01*
X0029613Y0005587D02*
X0032248Y0005587D01*
X0031889Y0006286D02*
X0029613Y0006286D01*
X0029613Y0006984D02*
X0031600Y0006984D01*
X0031513Y0007683D02*
X0029613Y0007683D01*
X0029613Y0008381D02*
X0031513Y0008381D01*
X0031626Y0009080D02*
X0029613Y0009080D01*
X0029613Y0009778D02*
X0031915Y0009778D01*
X0032312Y0010477D02*
X0029613Y0010477D01*
X0029613Y0011175D02*
X0033010Y0011175D01*
X0034113Y0011874D02*
X0029174Y0011874D01*
X0027013Y0012572D02*
X0034113Y0012572D01*
X0034113Y0013271D02*
X0027013Y0013271D01*
X0027013Y0013969D02*
X0034113Y0013969D01*
X0034113Y0014668D02*
X0027013Y0014668D01*
X0027013Y0015366D02*
X0034113Y0015366D01*
X0034113Y0016065D02*
X0027013Y0016065D01*
X0027013Y0016763D02*
X0034113Y0016763D01*
X0034113Y0017462D02*
X0027013Y0017462D01*
X0027013Y0018160D02*
X0034113Y0018160D01*
X0034113Y0018859D02*
X0027013Y0018859D01*
X0027013Y0019557D02*
X0034113Y0019557D01*
X0034113Y0020256D02*
X0027013Y0020256D01*
X0027013Y0020954D02*
X0034113Y0020954D01*
X0034113Y0021653D02*
X0027013Y0021653D01*
X0027013Y0022351D02*
X0034113Y0022351D01*
X0034113Y0023050D02*
X0027013Y0023050D01*
X0027013Y0023748D02*
X0034113Y0023748D01*
X0034113Y0024447D02*
X0027013Y0024447D01*
X0027013Y0025145D02*
X0034113Y0025145D01*
X0034113Y0025844D02*
X0027013Y0025844D01*
X0027013Y0026542D02*
X0034113Y0026542D01*
X0034113Y0027241D02*
X0027013Y0027241D01*
X0027013Y0027939D02*
X0034113Y0027939D01*
X0034113Y0028638D02*
X0027013Y0028638D01*
X0027013Y0029336D02*
X0034113Y0029336D01*
X0034113Y0030035D02*
X0027013Y0030035D01*
X0027013Y0030733D02*
X0034113Y0030733D01*
X0034113Y0031432D02*
X0027013Y0031432D01*
X0027013Y0032130D02*
X0034113Y0032130D01*
X0034113Y0032829D02*
X0027013Y0032829D01*
X0027013Y0033527D02*
X0034113Y0033527D01*
X0034113Y0034226D02*
X0027013Y0034226D01*
X0027013Y0034925D02*
X0034113Y0034925D01*
X0034113Y0035623D02*
X0027013Y0035623D01*
X0027013Y0036322D02*
X0034113Y0036322D01*
X0034113Y0037020D02*
X0027013Y0037020D01*
X0027013Y0037719D02*
X0034113Y0037719D01*
X0034113Y0038417D02*
X0027013Y0038417D01*
X0027013Y0039116D02*
X0034113Y0039116D01*
X0033780Y0039814D02*
X0027013Y0039814D01*
X0027013Y0040513D02*
X0033081Y0040513D01*
X0032383Y0041211D02*
X0027013Y0041211D01*
X0027347Y0041910D02*
X0031684Y0041910D01*
X0030986Y0042608D02*
X0027700Y0042608D01*
X0027700Y0043307D02*
X0030287Y0043307D01*
X0029589Y0044005D02*
X0027700Y0044005D01*
X0027123Y0044704D02*
X0028890Y0044704D01*
X0028192Y0045402D02*
X0026424Y0045402D01*
X0025530Y0046101D02*
X0027493Y0046101D01*
X0026795Y0046799D02*
X0025530Y0046799D01*
X0023200Y0043307D02*
X0012564Y0043307D01*
X0012641Y0042608D02*
X0023200Y0042608D01*
X0023553Y0041910D02*
X0012641Y0041910D01*
X0012641Y0041211D02*
X0024113Y0041211D01*
X0024113Y0040513D02*
X0007704Y0040513D01*
X0007704Y0041211D02*
X0007004Y0041211D01*
X0007004Y0041910D02*
X0007704Y0041910D01*
X0007704Y0042608D02*
X0007004Y0042608D01*
X0007004Y0043307D02*
X0007704Y0043307D01*
X0007704Y0044005D02*
X0007004Y0044005D01*
X0003700Y0044704D02*
X0018115Y0044704D01*
X0018115Y0045402D02*
X0003700Y0045402D01*
X0003700Y0046101D02*
X0018115Y0046101D01*
X0018115Y0046799D02*
X0003700Y0046799D01*
X0003700Y0047498D02*
X0018398Y0047498D01*
X0018115Y0048196D02*
X0003700Y0048196D01*
X0003700Y0048895D02*
X0018115Y0048895D01*
X0018115Y0049593D02*
X0003700Y0049593D01*
X0003700Y0050292D02*
X0018115Y0050292D01*
X0018115Y0050990D02*
X0003700Y0050990D01*
X0003700Y0051689D02*
X0018283Y0051689D01*
X0018115Y0052387D02*
X0003700Y0052387D01*
X0003700Y0053086D02*
X0018115Y0053086D01*
X0018115Y0053784D02*
X0003700Y0053784D01*
X0003700Y0054483D02*
X0018115Y0054483D01*
X0018208Y0055181D02*
X0003700Y0055181D01*
X0003700Y0055880D02*
X0017861Y0055880D01*
X0017815Y0056578D02*
X0003700Y0056578D01*
X0003700Y0057277D02*
X0021582Y0057277D01*
X0022063Y0057277D02*
X0039277Y0057277D01*
X0039004Y0057975D02*
X0037286Y0057975D01*
X0037358Y0058017D02*
X0037691Y0058350D01*
X0037927Y0058757D01*
X0038048Y0059212D01*
X0038048Y0060410D01*
X0035298Y0060410D01*
X0035298Y0057660D01*
X0036496Y0057660D01*
X0036951Y0057782D01*
X0037358Y0058017D01*
X0037878Y0058674D02*
X0038306Y0058674D01*
X0038148Y0059372D02*
X0038048Y0059372D01*
X0038048Y0060071D02*
X0038148Y0060071D01*
X0038148Y0060769D02*
X0035298Y0060769D01*
X0035298Y0061110D02*
X0035298Y0060410D01*
X0034598Y0060410D01*
X0031848Y0060410D01*
X0031848Y0059212D01*
X0031970Y0058757D01*
X0032206Y0058350D01*
X0032538Y0058017D01*
X0032946Y0057782D01*
X0033401Y0057660D01*
X0034598Y0057660D01*
X0034598Y0060410D01*
X0034598Y0061110D01*
X0031848Y0061110D01*
X0031848Y0062308D01*
X0031970Y0062762D01*
X0032206Y0063170D01*
X0032538Y0063503D01*
X0032946Y0063738D01*
X0033401Y0063860D01*
X0034598Y0063860D01*
X0034598Y0061110D01*
X0035298Y0061110D01*
X0035298Y0063860D01*
X0036496Y0063860D01*
X0036951Y0063738D01*
X0037358Y0063503D01*
X0037691Y0063170D01*
X0037927Y0062762D01*
X0038048Y0062308D01*
X0038048Y0061110D01*
X0035298Y0061110D01*
X0035298Y0061468D02*
X0034598Y0061468D01*
X0034598Y0062166D02*
X0035298Y0062166D01*
X0035298Y0062865D02*
X0034598Y0062865D01*
X0034598Y0063563D02*
X0035298Y0063563D01*
X0037253Y0063563D02*
X0089744Y0063563D01*
X0089744Y0064262D02*
X0012641Y0064262D01*
X0012641Y0063563D02*
X0032644Y0063563D01*
X0032030Y0062865D02*
X0007704Y0062865D01*
X0007704Y0062178D02*
X0012641Y0062178D01*
X0012641Y0059988D01*
X0012549Y0059644D01*
X0012371Y0059336D01*
X0012120Y0059085D01*
X0011812Y0058907D01*
X0011469Y0058815D01*
X0007704Y0058815D01*
X0007704Y0062178D01*
X0007704Y0062166D02*
X0007004Y0062166D01*
X0007004Y0061468D02*
X0007704Y0061468D01*
X0007704Y0060769D02*
X0007004Y0060769D01*
X0007004Y0060071D02*
X0007704Y0060071D01*
X0007704Y0059372D02*
X0007004Y0059372D01*
X0003700Y0058674D02*
X0017815Y0058674D01*
X0017815Y0057975D02*
X0003700Y0057975D01*
X0012392Y0059372D02*
X0018058Y0059372D01*
X0021582Y0059372D02*
X0022063Y0059372D01*
X0022063Y0058674D02*
X0021582Y0058674D01*
X0021582Y0057975D02*
X0022063Y0057975D01*
X0025830Y0057975D02*
X0032610Y0057975D01*
X0032018Y0058674D02*
X0025830Y0058674D01*
X0025587Y0059372D02*
X0031848Y0059372D01*
X0031848Y0060071D02*
X0012641Y0060071D01*
X0012641Y0060769D02*
X0034598Y0060769D01*
X0034598Y0060071D02*
X0035298Y0060071D01*
X0035298Y0059372D02*
X0034598Y0059372D01*
X0034598Y0058674D02*
X0035298Y0058674D01*
X0035298Y0057975D02*
X0034598Y0057975D01*
X0035277Y0057261D02*
X0035277Y0054511D01*
X0038027Y0054511D01*
X0038027Y0055708D01*
X0037905Y0056163D01*
X0037670Y0056571D01*
X0037337Y0056903D01*
X0036930Y0057139D01*
X0036475Y0057261D01*
X0035277Y0057261D01*
X0035277Y0056578D02*
X0034577Y0056578D01*
X0034577Y0055880D02*
X0035277Y0055880D01*
X0035277Y0055181D02*
X0034577Y0055181D01*
X0034577Y0054483D02*
X0030195Y0054483D01*
X0030894Y0053784D02*
X0031827Y0053784D01*
X0031827Y0053086D02*
X0031592Y0053086D01*
X0031827Y0055181D02*
X0025437Y0055181D01*
X0025784Y0055880D02*
X0031873Y0055880D01*
X0032192Y0056578D02*
X0025830Y0056578D01*
X0031848Y0061468D02*
X0012641Y0061468D01*
X0012641Y0062166D02*
X0031848Y0062166D01*
X0037867Y0062865D02*
X0038325Y0062865D01*
X0038148Y0062166D02*
X0038048Y0062166D01*
X0038048Y0061468D02*
X0038148Y0061468D01*
X0042577Y0057602D02*
X0043140Y0057602D01*
X0046551Y0057602D01*
X0046539Y0057560D01*
X0046539Y0056693D01*
X0048873Y0056693D01*
X0048873Y0056693D01*
X0046539Y0056693D01*
X0046539Y0055826D01*
X0046544Y0055811D01*
X0043727Y0055811D01*
X0043727Y0056089D01*
X0042856Y0056961D01*
X0042577Y0056961D01*
X0042577Y0057602D01*
X0042577Y0057277D02*
X0046539Y0057277D01*
X0046539Y0056578D02*
X0043238Y0056578D01*
X0043727Y0055880D02*
X0046539Y0055880D01*
X0051208Y0057277D02*
X0051582Y0057277D01*
X0051074Y0057975D02*
X0052280Y0057975D01*
X0052839Y0058674D02*
X0050908Y0058674D01*
X0050908Y0059372D02*
X0052839Y0059372D01*
X0052839Y0060071D02*
X0050908Y0060071D01*
X0050514Y0060769D02*
X0053108Y0060769D01*
X0055173Y0060769D02*
X0055173Y0060769D01*
X0055173Y0060071D02*
X0055173Y0060071D01*
X0055173Y0059372D02*
X0055173Y0059372D01*
X0057507Y0059372D02*
X0071646Y0059372D01*
X0070947Y0058674D02*
X0057507Y0058674D01*
X0057377Y0057975D02*
X0070615Y0057975D01*
X0070615Y0057277D02*
X0057207Y0057277D01*
X0057207Y0056578D02*
X0069983Y0056578D01*
X0069285Y0055880D02*
X0057207Y0055880D01*
X0057207Y0055181D02*
X0068586Y0055181D01*
X0067888Y0054483D02*
X0057207Y0054483D01*
X0057207Y0053784D02*
X0067189Y0053784D01*
X0066491Y0053086D02*
X0057207Y0053086D01*
X0057507Y0060071D02*
X0089744Y0060071D01*
X0089744Y0060769D02*
X0057238Y0060769D01*
X0043748Y0061468D02*
X0089744Y0061468D01*
X0089744Y0062166D02*
X0043748Y0062166D01*
X0043572Y0062865D02*
X0094681Y0062865D01*
X0094681Y0062166D02*
X0095381Y0062166D01*
X0095381Y0061468D02*
X0094681Y0061468D01*
X0094681Y0060769D02*
X0095381Y0060769D01*
X0095381Y0060071D02*
X0094681Y0060071D01*
X0094681Y0059372D02*
X0095381Y0059372D01*
X0098685Y0058674D02*
X0084270Y0058674D01*
X0084270Y0057975D02*
X0098685Y0057975D01*
X0098685Y0057277D02*
X0084270Y0057277D01*
X0084270Y0056578D02*
X0098685Y0056578D01*
X0098685Y0055880D02*
X0084270Y0055880D01*
X0084177Y0055181D02*
X0098685Y0055181D01*
X0098685Y0054483D02*
X0084270Y0054483D01*
X0084270Y0053784D02*
X0098685Y0053784D01*
X0098685Y0053086D02*
X0084270Y0053086D01*
X0083923Y0059372D02*
X0089993Y0059372D01*
X0077202Y0059372D02*
X0074084Y0059372D01*
X0042987Y0043307D02*
X0041371Y0043307D01*
X0041600Y0042608D02*
X0043313Y0042608D01*
X0043313Y0041910D02*
X0041600Y0041910D01*
X0042289Y0044005D02*
X0040673Y0044005D01*
X0038101Y0041910D02*
X0035785Y0041910D01*
X0035087Y0042608D02*
X0037403Y0042608D01*
X0036704Y0043307D02*
X0034388Y0043307D01*
X0033690Y0044005D02*
X0036006Y0044005D01*
X0036484Y0041211D02*
X0038300Y0041211D01*
X0038300Y0040513D02*
X0037013Y0040513D01*
X0037013Y0039814D02*
X0038300Y0039814D01*
X0038300Y0039116D02*
X0037013Y0039116D01*
X0037013Y0038417D02*
X0038300Y0038417D01*
X0037892Y0037719D02*
X0037013Y0037719D01*
X0037013Y0037020D02*
X0037700Y0037020D01*
X0037700Y0036322D02*
X0037013Y0036322D01*
X0037013Y0035623D02*
X0037739Y0035623D01*
X0038438Y0034925D02*
X0037013Y0034925D01*
X0024113Y0034925D02*
X0003700Y0034925D01*
X0003700Y0035623D02*
X0024113Y0035623D01*
X0024113Y0036322D02*
X0003700Y0036322D01*
X0003700Y0034226D02*
X0024113Y0034226D01*
X0024113Y0033527D02*
X0003700Y0033527D01*
X0003700Y0032829D02*
X0008692Y0032829D01*
X0007005Y0032130D02*
X0003700Y0032130D01*
X0003700Y0031432D02*
X0006020Y0031432D01*
X0005322Y0030733D02*
X0003700Y0030733D01*
X0003700Y0030035D02*
X0004623Y0030035D01*
X0004082Y0029336D02*
X0003700Y0029336D01*
X0003700Y0028638D02*
X0003793Y0028638D01*
X0003700Y0020954D02*
X0003903Y0020954D01*
X0003700Y0020256D02*
X0004193Y0020256D01*
X0003700Y0019557D02*
X0004889Y0019557D01*
X0005588Y0018859D02*
X0003700Y0018859D01*
X0003700Y0018160D02*
X0006286Y0018160D01*
X0007648Y0017462D02*
X0003700Y0017462D01*
X0003700Y0016763D02*
X0009334Y0016763D01*
X0013051Y0016763D02*
X0024113Y0016763D01*
X0024113Y0016065D02*
X0003700Y0016065D01*
X0003700Y0015366D02*
X0024113Y0015366D01*
X0024113Y0014668D02*
X0003700Y0014668D01*
X0003700Y0013969D02*
X0024113Y0013969D01*
X0024113Y0013271D02*
X0003700Y0013271D01*
X0003700Y0012572D02*
X0024113Y0012572D01*
X0021951Y0011874D02*
X0003700Y0011874D01*
X0003700Y0011175D02*
X0021513Y0011175D01*
X0021513Y0010477D02*
X0003700Y0010477D01*
X0003700Y0009778D02*
X0021513Y0009778D01*
X0021513Y0009080D02*
X0003700Y0009080D01*
X0003700Y0008381D02*
X0021513Y0008381D01*
X0021513Y0007683D02*
X0003700Y0007683D01*
X0003700Y0006984D02*
X0021513Y0006984D01*
X0021513Y0006286D02*
X0003700Y0006286D01*
X0003700Y0005587D02*
X0021513Y0005587D01*
X0021513Y0004889D02*
X0003700Y0004889D01*
X0014737Y0017462D02*
X0024113Y0017462D01*
X0024113Y0018160D02*
X0016099Y0018160D01*
X0016797Y0018859D02*
X0024113Y0018859D01*
X0024113Y0019557D02*
X0017496Y0019557D01*
X0018192Y0020256D02*
X0024113Y0020256D01*
X0024113Y0020954D02*
X0018482Y0020954D01*
X0018771Y0021653D02*
X0024113Y0021653D01*
X0024113Y0022351D02*
X0019060Y0022351D01*
X0019350Y0023050D02*
X0024113Y0023050D01*
X0024113Y0023748D02*
X0019448Y0023748D01*
X0019448Y0024447D02*
X0024113Y0024447D01*
X0024113Y0025145D02*
X0019448Y0025145D01*
X0019448Y0025844D02*
X0024113Y0025844D01*
X0024113Y0026542D02*
X0019448Y0026542D01*
X0019171Y0027241D02*
X0024113Y0027241D01*
X0024113Y0027939D02*
X0018881Y0027939D01*
X0018592Y0028638D02*
X0024113Y0028638D01*
X0024113Y0029336D02*
X0018303Y0029336D01*
X0017762Y0030035D02*
X0024113Y0030035D01*
X0024113Y0030733D02*
X0017063Y0030733D01*
X0016365Y0031432D02*
X0024113Y0031432D01*
X0024113Y0032130D02*
X0015380Y0032130D01*
X0013693Y0032829D02*
X0024113Y0032829D01*
X0024113Y0037020D02*
X0012089Y0037020D01*
X0012581Y0037719D02*
X0024113Y0037719D01*
X0024113Y0038417D02*
X0012641Y0038417D01*
X0012641Y0039116D02*
X0024113Y0039116D01*
X0024113Y0039814D02*
X0012641Y0039814D01*
X0011977Y0044005D02*
X0018115Y0044005D01*
X0007704Y0039814D02*
X0007004Y0039814D01*
X0007004Y0039116D02*
X0007704Y0039116D01*
X0007704Y0038417D02*
X0007004Y0038417D01*
X0007004Y0037719D02*
X0007704Y0037719D01*
X0007704Y0037020D02*
X0007004Y0037020D01*
X0033617Y0051061D02*
X0034577Y0051061D01*
X0034577Y0053811D01*
X0035277Y0053811D01*
X0035277Y0051061D01*
X0035494Y0051061D01*
X0034628Y0050194D01*
X0034483Y0050194D01*
X0033617Y0051061D01*
X0033688Y0050990D02*
X0035423Y0050990D01*
X0035277Y0051689D02*
X0034577Y0051689D01*
X0034577Y0052387D02*
X0035277Y0052387D01*
X0035277Y0053086D02*
X0034577Y0053086D01*
X0034577Y0053784D02*
X0035277Y0053784D01*
X0035277Y0054483D02*
X0038127Y0054483D01*
X0038127Y0055181D02*
X0038027Y0055181D01*
X0037981Y0055880D02*
X0038127Y0055880D01*
X0037662Y0056578D02*
X0038616Y0056578D01*
X0038127Y0053784D02*
X0038027Y0053784D01*
X0034725Y0050292D02*
X0034386Y0050292D01*
X0053740Y0011874D02*
X0054331Y0011874D01*
X0068179Y0004889D02*
X0072522Y0004889D01*
X0071939Y0005587D02*
X0068877Y0005587D01*
X0069236Y0006286D02*
X0071554Y0006286D01*
X0071319Y0006984D02*
X0069525Y0006984D01*
X0075213Y0009080D02*
X0075913Y0009080D01*
X0075913Y0009778D02*
X0075213Y0009778D01*
X0075213Y0010477D02*
X0075913Y0010477D01*
X0075913Y0011175D02*
X0075213Y0011175D01*
X0075213Y0011874D02*
X0075913Y0011874D01*
X0079806Y0006984D02*
X0098685Y0006984D01*
X0098685Y0006286D02*
X0079571Y0006286D01*
X0079186Y0005587D02*
X0098685Y0005587D01*
X0098685Y0004889D02*
X0078603Y0004889D01*
D18*
X0039950Y0036594D02*
X0039950Y0042394D01*
X0034950Y0047394D01*
X0028872Y0053472D01*
X0021822Y0053472D01*
X0034950Y0048183D02*
X0034950Y0047394D01*
X0034950Y0048183D02*
X0040927Y0054161D01*
X0040927Y0060739D01*
X0040948Y0060760D01*
X0042456Y0059252D01*
X0048874Y0059252D01*
X0048875Y0056694D02*
X0050646Y0056694D01*
X0053203Y0059252D01*
X0055173Y0059252D01*
X0048875Y0056694D02*
X0048874Y0056693D01*
X0048847Y0054161D02*
X0048874Y0054134D01*
X0048847Y0054161D02*
X0040927Y0054161D01*
X0080563Y0049535D02*
X0084891Y0049535D01*
X0084950Y0049594D01*
D19*
X0084950Y0049594D03*
X0095350Y0051094D03*
X0095350Y0046094D03*
X0095350Y0056094D03*
X0072865Y0057409D03*
X0060450Y0049275D03*
X0054350Y0044094D03*
X0048350Y0040094D03*
X0045563Y0042782D03*
X0039950Y0036594D03*
X0039350Y0033094D03*
X0029350Y0042094D03*
X0025450Y0043194D03*
X0026109Y0049535D03*
X0007350Y0051094D03*
X0007350Y0047094D03*
X0007350Y0056094D03*
X0060650Y0034994D03*
X0066550Y0034894D03*
X0070850Y0046794D03*
X0082350Y0008094D03*
X0086350Y0008094D03*
X0018350Y0009094D03*
D20*
X0025563Y0008000D02*
X0025563Y0043482D01*
X0024150Y0044894D01*
X0025450Y0043594D01*
X0025450Y0043194D01*
X0024150Y0044894D02*
X0023446Y0045598D01*
X0021822Y0045598D01*
X0021822Y0049535D02*
X0026109Y0049535D01*
X0035563Y0040082D01*
X0035563Y0008000D01*
X0045563Y0008000D02*
X0045563Y0042782D01*
X0040950Y0047394D01*
X0045130Y0051575D01*
X0048874Y0051575D01*
X0052650Y0052294D02*
X0052650Y0050194D01*
X0053250Y0049594D01*
X0059850Y0049594D01*
X0060130Y0049594D01*
X0060450Y0049275D01*
X0060634Y0048810D02*
X0061419Y0049594D01*
X0061450Y0049594D01*
X0060950Y0049594D01*
X0059850Y0049594D01*
X0060634Y0048810D01*
X0060634Y0045439D01*
X0061450Y0049594D02*
X0062550Y0049594D01*
X0062462Y0049594D01*
X0062550Y0049594D02*
X0068050Y0049594D01*
X0071928Y0053472D01*
X0080563Y0053472D01*
X0080563Y0057409D02*
X0072865Y0057409D01*
X0067030Y0051575D01*
X0055173Y0051575D01*
X0055173Y0054134D02*
X0054489Y0054134D01*
X0052650Y0052294D01*
X0051150Y0054794D02*
X0051150Y0012413D01*
X0055563Y0008000D01*
X0060650Y0034994D02*
X0060634Y0035010D01*
X0060634Y0039439D01*
X0066550Y0039394D02*
X0066550Y0034894D01*
X0066550Y0045394D02*
X0069450Y0045394D01*
X0070850Y0046794D01*
X0055173Y0056693D02*
X0053048Y0056693D01*
X0051150Y0054794D01*
M02*
