G75*
%MOIN*%
%OFA0B0*%
%FSLAX25Y25*%
%IPPOS*%
%LPD*%
%AMOC8*
5,1,8,0,0,1.08239X$1,22.5*
%
%ADD10C,0.00000*%
%ADD11C,0.12211*%
%ADD12R,0.06400X0.06400*%
%ADD13C,0.06400*%
%ADD14R,0.02900X0.05400*%
%ADD15C,0.00800*%
D10*
X0001350Y0002094D02*
X0001350Y0067055D01*
X0101035Y0067055D01*
X0101035Y0002094D01*
X0001350Y0002094D01*
X0005287Y0024929D02*
X0005289Y0025082D01*
X0005295Y0025236D01*
X0005305Y0025389D01*
X0005319Y0025541D01*
X0005337Y0025694D01*
X0005359Y0025845D01*
X0005384Y0025996D01*
X0005414Y0026147D01*
X0005448Y0026297D01*
X0005485Y0026445D01*
X0005526Y0026593D01*
X0005571Y0026739D01*
X0005620Y0026885D01*
X0005673Y0027029D01*
X0005729Y0027171D01*
X0005789Y0027312D01*
X0005853Y0027452D01*
X0005920Y0027590D01*
X0005991Y0027726D01*
X0006066Y0027860D01*
X0006143Y0027992D01*
X0006225Y0028122D01*
X0006309Y0028250D01*
X0006397Y0028376D01*
X0006488Y0028499D01*
X0006582Y0028620D01*
X0006680Y0028738D01*
X0006780Y0028854D01*
X0006884Y0028967D01*
X0006990Y0029078D01*
X0007099Y0029186D01*
X0007211Y0029291D01*
X0007325Y0029392D01*
X0007443Y0029491D01*
X0007562Y0029587D01*
X0007684Y0029680D01*
X0007809Y0029769D01*
X0007936Y0029856D01*
X0008065Y0029938D01*
X0008196Y0030018D01*
X0008329Y0030094D01*
X0008464Y0030167D01*
X0008601Y0030236D01*
X0008740Y0030301D01*
X0008880Y0030363D01*
X0009022Y0030421D01*
X0009165Y0030476D01*
X0009310Y0030527D01*
X0009456Y0030574D01*
X0009603Y0030617D01*
X0009751Y0030656D01*
X0009900Y0030692D01*
X0010050Y0030723D01*
X0010201Y0030751D01*
X0010352Y0030775D01*
X0010505Y0030795D01*
X0010657Y0030811D01*
X0010810Y0030823D01*
X0010963Y0030831D01*
X0011116Y0030835D01*
X0011270Y0030835D01*
X0011423Y0030831D01*
X0011576Y0030823D01*
X0011729Y0030811D01*
X0011881Y0030795D01*
X0012034Y0030775D01*
X0012185Y0030751D01*
X0012336Y0030723D01*
X0012486Y0030692D01*
X0012635Y0030656D01*
X0012783Y0030617D01*
X0012930Y0030574D01*
X0013076Y0030527D01*
X0013221Y0030476D01*
X0013364Y0030421D01*
X0013506Y0030363D01*
X0013646Y0030301D01*
X0013785Y0030236D01*
X0013922Y0030167D01*
X0014057Y0030094D01*
X0014190Y0030018D01*
X0014321Y0029938D01*
X0014450Y0029856D01*
X0014577Y0029769D01*
X0014702Y0029680D01*
X0014824Y0029587D01*
X0014943Y0029491D01*
X0015061Y0029392D01*
X0015175Y0029291D01*
X0015287Y0029186D01*
X0015396Y0029078D01*
X0015502Y0028967D01*
X0015606Y0028854D01*
X0015706Y0028738D01*
X0015804Y0028620D01*
X0015898Y0028499D01*
X0015989Y0028376D01*
X0016077Y0028250D01*
X0016161Y0028122D01*
X0016243Y0027992D01*
X0016320Y0027860D01*
X0016395Y0027726D01*
X0016466Y0027590D01*
X0016533Y0027452D01*
X0016597Y0027312D01*
X0016657Y0027171D01*
X0016713Y0027029D01*
X0016766Y0026885D01*
X0016815Y0026739D01*
X0016860Y0026593D01*
X0016901Y0026445D01*
X0016938Y0026297D01*
X0016972Y0026147D01*
X0017002Y0025996D01*
X0017027Y0025845D01*
X0017049Y0025694D01*
X0017067Y0025541D01*
X0017081Y0025389D01*
X0017091Y0025236D01*
X0017097Y0025082D01*
X0017099Y0024929D01*
X0017097Y0024776D01*
X0017091Y0024622D01*
X0017081Y0024469D01*
X0017067Y0024317D01*
X0017049Y0024164D01*
X0017027Y0024013D01*
X0017002Y0023862D01*
X0016972Y0023711D01*
X0016938Y0023561D01*
X0016901Y0023413D01*
X0016860Y0023265D01*
X0016815Y0023119D01*
X0016766Y0022973D01*
X0016713Y0022829D01*
X0016657Y0022687D01*
X0016597Y0022546D01*
X0016533Y0022406D01*
X0016466Y0022268D01*
X0016395Y0022132D01*
X0016320Y0021998D01*
X0016243Y0021866D01*
X0016161Y0021736D01*
X0016077Y0021608D01*
X0015989Y0021482D01*
X0015898Y0021359D01*
X0015804Y0021238D01*
X0015706Y0021120D01*
X0015606Y0021004D01*
X0015502Y0020891D01*
X0015396Y0020780D01*
X0015287Y0020672D01*
X0015175Y0020567D01*
X0015061Y0020466D01*
X0014943Y0020367D01*
X0014824Y0020271D01*
X0014702Y0020178D01*
X0014577Y0020089D01*
X0014450Y0020002D01*
X0014321Y0019920D01*
X0014190Y0019840D01*
X0014057Y0019764D01*
X0013922Y0019691D01*
X0013785Y0019622D01*
X0013646Y0019557D01*
X0013506Y0019495D01*
X0013364Y0019437D01*
X0013221Y0019382D01*
X0013076Y0019331D01*
X0012930Y0019284D01*
X0012783Y0019241D01*
X0012635Y0019202D01*
X0012486Y0019166D01*
X0012336Y0019135D01*
X0012185Y0019107D01*
X0012034Y0019083D01*
X0011881Y0019063D01*
X0011729Y0019047D01*
X0011576Y0019035D01*
X0011423Y0019027D01*
X0011270Y0019023D01*
X0011116Y0019023D01*
X0010963Y0019027D01*
X0010810Y0019035D01*
X0010657Y0019047D01*
X0010505Y0019063D01*
X0010352Y0019083D01*
X0010201Y0019107D01*
X0010050Y0019135D01*
X0009900Y0019166D01*
X0009751Y0019202D01*
X0009603Y0019241D01*
X0009456Y0019284D01*
X0009310Y0019331D01*
X0009165Y0019382D01*
X0009022Y0019437D01*
X0008880Y0019495D01*
X0008740Y0019557D01*
X0008601Y0019622D01*
X0008464Y0019691D01*
X0008329Y0019764D01*
X0008196Y0019840D01*
X0008065Y0019920D01*
X0007936Y0020002D01*
X0007809Y0020089D01*
X0007684Y0020178D01*
X0007562Y0020271D01*
X0007443Y0020367D01*
X0007325Y0020466D01*
X0007211Y0020567D01*
X0007099Y0020672D01*
X0006990Y0020780D01*
X0006884Y0020891D01*
X0006780Y0021004D01*
X0006680Y0021120D01*
X0006582Y0021238D01*
X0006488Y0021359D01*
X0006397Y0021482D01*
X0006309Y0021608D01*
X0006225Y0021736D01*
X0006143Y0021866D01*
X0006066Y0021998D01*
X0005991Y0022132D01*
X0005920Y0022268D01*
X0005853Y0022406D01*
X0005789Y0022546D01*
X0005729Y0022687D01*
X0005673Y0022829D01*
X0005620Y0022973D01*
X0005571Y0023119D01*
X0005526Y0023265D01*
X0005485Y0023413D01*
X0005448Y0023561D01*
X0005414Y0023711D01*
X0005384Y0023862D01*
X0005359Y0024013D01*
X0005337Y0024164D01*
X0005319Y0024317D01*
X0005305Y0024469D01*
X0005295Y0024622D01*
X0005289Y0024776D01*
X0005287Y0024929D01*
X0085287Y0024929D02*
X0085289Y0025082D01*
X0085295Y0025236D01*
X0085305Y0025389D01*
X0085319Y0025541D01*
X0085337Y0025694D01*
X0085359Y0025845D01*
X0085384Y0025996D01*
X0085414Y0026147D01*
X0085448Y0026297D01*
X0085485Y0026445D01*
X0085526Y0026593D01*
X0085571Y0026739D01*
X0085620Y0026885D01*
X0085673Y0027029D01*
X0085729Y0027171D01*
X0085789Y0027312D01*
X0085853Y0027452D01*
X0085920Y0027590D01*
X0085991Y0027726D01*
X0086066Y0027860D01*
X0086143Y0027992D01*
X0086225Y0028122D01*
X0086309Y0028250D01*
X0086397Y0028376D01*
X0086488Y0028499D01*
X0086582Y0028620D01*
X0086680Y0028738D01*
X0086780Y0028854D01*
X0086884Y0028967D01*
X0086990Y0029078D01*
X0087099Y0029186D01*
X0087211Y0029291D01*
X0087325Y0029392D01*
X0087443Y0029491D01*
X0087562Y0029587D01*
X0087684Y0029680D01*
X0087809Y0029769D01*
X0087936Y0029856D01*
X0088065Y0029938D01*
X0088196Y0030018D01*
X0088329Y0030094D01*
X0088464Y0030167D01*
X0088601Y0030236D01*
X0088740Y0030301D01*
X0088880Y0030363D01*
X0089022Y0030421D01*
X0089165Y0030476D01*
X0089310Y0030527D01*
X0089456Y0030574D01*
X0089603Y0030617D01*
X0089751Y0030656D01*
X0089900Y0030692D01*
X0090050Y0030723D01*
X0090201Y0030751D01*
X0090352Y0030775D01*
X0090505Y0030795D01*
X0090657Y0030811D01*
X0090810Y0030823D01*
X0090963Y0030831D01*
X0091116Y0030835D01*
X0091270Y0030835D01*
X0091423Y0030831D01*
X0091576Y0030823D01*
X0091729Y0030811D01*
X0091881Y0030795D01*
X0092034Y0030775D01*
X0092185Y0030751D01*
X0092336Y0030723D01*
X0092486Y0030692D01*
X0092635Y0030656D01*
X0092783Y0030617D01*
X0092930Y0030574D01*
X0093076Y0030527D01*
X0093221Y0030476D01*
X0093364Y0030421D01*
X0093506Y0030363D01*
X0093646Y0030301D01*
X0093785Y0030236D01*
X0093922Y0030167D01*
X0094057Y0030094D01*
X0094190Y0030018D01*
X0094321Y0029938D01*
X0094450Y0029856D01*
X0094577Y0029769D01*
X0094702Y0029680D01*
X0094824Y0029587D01*
X0094943Y0029491D01*
X0095061Y0029392D01*
X0095175Y0029291D01*
X0095287Y0029186D01*
X0095396Y0029078D01*
X0095502Y0028967D01*
X0095606Y0028854D01*
X0095706Y0028738D01*
X0095804Y0028620D01*
X0095898Y0028499D01*
X0095989Y0028376D01*
X0096077Y0028250D01*
X0096161Y0028122D01*
X0096243Y0027992D01*
X0096320Y0027860D01*
X0096395Y0027726D01*
X0096466Y0027590D01*
X0096533Y0027452D01*
X0096597Y0027312D01*
X0096657Y0027171D01*
X0096713Y0027029D01*
X0096766Y0026885D01*
X0096815Y0026739D01*
X0096860Y0026593D01*
X0096901Y0026445D01*
X0096938Y0026297D01*
X0096972Y0026147D01*
X0097002Y0025996D01*
X0097027Y0025845D01*
X0097049Y0025694D01*
X0097067Y0025541D01*
X0097081Y0025389D01*
X0097091Y0025236D01*
X0097097Y0025082D01*
X0097099Y0024929D01*
X0097097Y0024776D01*
X0097091Y0024622D01*
X0097081Y0024469D01*
X0097067Y0024317D01*
X0097049Y0024164D01*
X0097027Y0024013D01*
X0097002Y0023862D01*
X0096972Y0023711D01*
X0096938Y0023561D01*
X0096901Y0023413D01*
X0096860Y0023265D01*
X0096815Y0023119D01*
X0096766Y0022973D01*
X0096713Y0022829D01*
X0096657Y0022687D01*
X0096597Y0022546D01*
X0096533Y0022406D01*
X0096466Y0022268D01*
X0096395Y0022132D01*
X0096320Y0021998D01*
X0096243Y0021866D01*
X0096161Y0021736D01*
X0096077Y0021608D01*
X0095989Y0021482D01*
X0095898Y0021359D01*
X0095804Y0021238D01*
X0095706Y0021120D01*
X0095606Y0021004D01*
X0095502Y0020891D01*
X0095396Y0020780D01*
X0095287Y0020672D01*
X0095175Y0020567D01*
X0095061Y0020466D01*
X0094943Y0020367D01*
X0094824Y0020271D01*
X0094702Y0020178D01*
X0094577Y0020089D01*
X0094450Y0020002D01*
X0094321Y0019920D01*
X0094190Y0019840D01*
X0094057Y0019764D01*
X0093922Y0019691D01*
X0093785Y0019622D01*
X0093646Y0019557D01*
X0093506Y0019495D01*
X0093364Y0019437D01*
X0093221Y0019382D01*
X0093076Y0019331D01*
X0092930Y0019284D01*
X0092783Y0019241D01*
X0092635Y0019202D01*
X0092486Y0019166D01*
X0092336Y0019135D01*
X0092185Y0019107D01*
X0092034Y0019083D01*
X0091881Y0019063D01*
X0091729Y0019047D01*
X0091576Y0019035D01*
X0091423Y0019027D01*
X0091270Y0019023D01*
X0091116Y0019023D01*
X0090963Y0019027D01*
X0090810Y0019035D01*
X0090657Y0019047D01*
X0090505Y0019063D01*
X0090352Y0019083D01*
X0090201Y0019107D01*
X0090050Y0019135D01*
X0089900Y0019166D01*
X0089751Y0019202D01*
X0089603Y0019241D01*
X0089456Y0019284D01*
X0089310Y0019331D01*
X0089165Y0019382D01*
X0089022Y0019437D01*
X0088880Y0019495D01*
X0088740Y0019557D01*
X0088601Y0019622D01*
X0088464Y0019691D01*
X0088329Y0019764D01*
X0088196Y0019840D01*
X0088065Y0019920D01*
X0087936Y0020002D01*
X0087809Y0020089D01*
X0087684Y0020178D01*
X0087562Y0020271D01*
X0087443Y0020367D01*
X0087325Y0020466D01*
X0087211Y0020567D01*
X0087099Y0020672D01*
X0086990Y0020780D01*
X0086884Y0020891D01*
X0086780Y0021004D01*
X0086680Y0021120D01*
X0086582Y0021238D01*
X0086488Y0021359D01*
X0086397Y0021482D01*
X0086309Y0021608D01*
X0086225Y0021736D01*
X0086143Y0021866D01*
X0086066Y0021998D01*
X0085991Y0022132D01*
X0085920Y0022268D01*
X0085853Y0022406D01*
X0085789Y0022546D01*
X0085729Y0022687D01*
X0085673Y0022829D01*
X0085620Y0022973D01*
X0085571Y0023119D01*
X0085526Y0023265D01*
X0085485Y0023413D01*
X0085448Y0023561D01*
X0085414Y0023711D01*
X0085384Y0023862D01*
X0085359Y0024013D01*
X0085337Y0024164D01*
X0085319Y0024317D01*
X0085305Y0024469D01*
X0085295Y0024622D01*
X0085289Y0024776D01*
X0085287Y0024929D01*
D11*
X0091193Y0024929D03*
X0011193Y0024929D03*
D12*
X0025563Y0008000D03*
D13*
X0035563Y0008000D03*
X0045563Y0008000D03*
X0055563Y0008000D03*
X0065563Y0008000D03*
X0075563Y0008000D03*
D14*
X0066702Y0028634D03*
X0063502Y0028634D03*
X0060302Y0028634D03*
X0043050Y0042894D03*
X0039850Y0042894D03*
D15*
X0060102Y0028634D02*
X0067002Y0028634D01*
M02*
