G75*
%MOIN*%
%OFA0B0*%
%FSLAX25Y25*%
%IPPOS*%
%LPD*%
%AMOC8*
5,1,8,0,0,1.08239X$1,22.5*
%
%ADD10C,0.00000*%
%ADD11C,0.00300*%
%ADD12C,0.00400*%
%ADD13C,0.00500*%
%ADD14C,0.01575*%
%ADD15C,0.01000*%
%ADD16C,0.00394*%
%ADD17C,0.00600*%
D10*
X0001350Y0002094D02*
X0001350Y0067055D01*
X0101035Y0067055D01*
X0101035Y0002094D01*
X0001350Y0002094D01*
X0005287Y0024929D02*
X0005289Y0025082D01*
X0005295Y0025236D01*
X0005305Y0025389D01*
X0005319Y0025541D01*
X0005337Y0025694D01*
X0005359Y0025845D01*
X0005384Y0025996D01*
X0005414Y0026147D01*
X0005448Y0026297D01*
X0005485Y0026445D01*
X0005526Y0026593D01*
X0005571Y0026739D01*
X0005620Y0026885D01*
X0005673Y0027029D01*
X0005729Y0027171D01*
X0005789Y0027312D01*
X0005853Y0027452D01*
X0005920Y0027590D01*
X0005991Y0027726D01*
X0006066Y0027860D01*
X0006143Y0027992D01*
X0006225Y0028122D01*
X0006309Y0028250D01*
X0006397Y0028376D01*
X0006488Y0028499D01*
X0006582Y0028620D01*
X0006680Y0028738D01*
X0006780Y0028854D01*
X0006884Y0028967D01*
X0006990Y0029078D01*
X0007099Y0029186D01*
X0007211Y0029291D01*
X0007325Y0029392D01*
X0007443Y0029491D01*
X0007562Y0029587D01*
X0007684Y0029680D01*
X0007809Y0029769D01*
X0007936Y0029856D01*
X0008065Y0029938D01*
X0008196Y0030018D01*
X0008329Y0030094D01*
X0008464Y0030167D01*
X0008601Y0030236D01*
X0008740Y0030301D01*
X0008880Y0030363D01*
X0009022Y0030421D01*
X0009165Y0030476D01*
X0009310Y0030527D01*
X0009456Y0030574D01*
X0009603Y0030617D01*
X0009751Y0030656D01*
X0009900Y0030692D01*
X0010050Y0030723D01*
X0010201Y0030751D01*
X0010352Y0030775D01*
X0010505Y0030795D01*
X0010657Y0030811D01*
X0010810Y0030823D01*
X0010963Y0030831D01*
X0011116Y0030835D01*
X0011270Y0030835D01*
X0011423Y0030831D01*
X0011576Y0030823D01*
X0011729Y0030811D01*
X0011881Y0030795D01*
X0012034Y0030775D01*
X0012185Y0030751D01*
X0012336Y0030723D01*
X0012486Y0030692D01*
X0012635Y0030656D01*
X0012783Y0030617D01*
X0012930Y0030574D01*
X0013076Y0030527D01*
X0013221Y0030476D01*
X0013364Y0030421D01*
X0013506Y0030363D01*
X0013646Y0030301D01*
X0013785Y0030236D01*
X0013922Y0030167D01*
X0014057Y0030094D01*
X0014190Y0030018D01*
X0014321Y0029938D01*
X0014450Y0029856D01*
X0014577Y0029769D01*
X0014702Y0029680D01*
X0014824Y0029587D01*
X0014943Y0029491D01*
X0015061Y0029392D01*
X0015175Y0029291D01*
X0015287Y0029186D01*
X0015396Y0029078D01*
X0015502Y0028967D01*
X0015606Y0028854D01*
X0015706Y0028738D01*
X0015804Y0028620D01*
X0015898Y0028499D01*
X0015989Y0028376D01*
X0016077Y0028250D01*
X0016161Y0028122D01*
X0016243Y0027992D01*
X0016320Y0027860D01*
X0016395Y0027726D01*
X0016466Y0027590D01*
X0016533Y0027452D01*
X0016597Y0027312D01*
X0016657Y0027171D01*
X0016713Y0027029D01*
X0016766Y0026885D01*
X0016815Y0026739D01*
X0016860Y0026593D01*
X0016901Y0026445D01*
X0016938Y0026297D01*
X0016972Y0026147D01*
X0017002Y0025996D01*
X0017027Y0025845D01*
X0017049Y0025694D01*
X0017067Y0025541D01*
X0017081Y0025389D01*
X0017091Y0025236D01*
X0017097Y0025082D01*
X0017099Y0024929D01*
X0017097Y0024776D01*
X0017091Y0024622D01*
X0017081Y0024469D01*
X0017067Y0024317D01*
X0017049Y0024164D01*
X0017027Y0024013D01*
X0017002Y0023862D01*
X0016972Y0023711D01*
X0016938Y0023561D01*
X0016901Y0023413D01*
X0016860Y0023265D01*
X0016815Y0023119D01*
X0016766Y0022973D01*
X0016713Y0022829D01*
X0016657Y0022687D01*
X0016597Y0022546D01*
X0016533Y0022406D01*
X0016466Y0022268D01*
X0016395Y0022132D01*
X0016320Y0021998D01*
X0016243Y0021866D01*
X0016161Y0021736D01*
X0016077Y0021608D01*
X0015989Y0021482D01*
X0015898Y0021359D01*
X0015804Y0021238D01*
X0015706Y0021120D01*
X0015606Y0021004D01*
X0015502Y0020891D01*
X0015396Y0020780D01*
X0015287Y0020672D01*
X0015175Y0020567D01*
X0015061Y0020466D01*
X0014943Y0020367D01*
X0014824Y0020271D01*
X0014702Y0020178D01*
X0014577Y0020089D01*
X0014450Y0020002D01*
X0014321Y0019920D01*
X0014190Y0019840D01*
X0014057Y0019764D01*
X0013922Y0019691D01*
X0013785Y0019622D01*
X0013646Y0019557D01*
X0013506Y0019495D01*
X0013364Y0019437D01*
X0013221Y0019382D01*
X0013076Y0019331D01*
X0012930Y0019284D01*
X0012783Y0019241D01*
X0012635Y0019202D01*
X0012486Y0019166D01*
X0012336Y0019135D01*
X0012185Y0019107D01*
X0012034Y0019083D01*
X0011881Y0019063D01*
X0011729Y0019047D01*
X0011576Y0019035D01*
X0011423Y0019027D01*
X0011270Y0019023D01*
X0011116Y0019023D01*
X0010963Y0019027D01*
X0010810Y0019035D01*
X0010657Y0019047D01*
X0010505Y0019063D01*
X0010352Y0019083D01*
X0010201Y0019107D01*
X0010050Y0019135D01*
X0009900Y0019166D01*
X0009751Y0019202D01*
X0009603Y0019241D01*
X0009456Y0019284D01*
X0009310Y0019331D01*
X0009165Y0019382D01*
X0009022Y0019437D01*
X0008880Y0019495D01*
X0008740Y0019557D01*
X0008601Y0019622D01*
X0008464Y0019691D01*
X0008329Y0019764D01*
X0008196Y0019840D01*
X0008065Y0019920D01*
X0007936Y0020002D01*
X0007809Y0020089D01*
X0007684Y0020178D01*
X0007562Y0020271D01*
X0007443Y0020367D01*
X0007325Y0020466D01*
X0007211Y0020567D01*
X0007099Y0020672D01*
X0006990Y0020780D01*
X0006884Y0020891D01*
X0006780Y0021004D01*
X0006680Y0021120D01*
X0006582Y0021238D01*
X0006488Y0021359D01*
X0006397Y0021482D01*
X0006309Y0021608D01*
X0006225Y0021736D01*
X0006143Y0021866D01*
X0006066Y0021998D01*
X0005991Y0022132D01*
X0005920Y0022268D01*
X0005853Y0022406D01*
X0005789Y0022546D01*
X0005729Y0022687D01*
X0005673Y0022829D01*
X0005620Y0022973D01*
X0005571Y0023119D01*
X0005526Y0023265D01*
X0005485Y0023413D01*
X0005448Y0023561D01*
X0005414Y0023711D01*
X0005384Y0023862D01*
X0005359Y0024013D01*
X0005337Y0024164D01*
X0005319Y0024317D01*
X0005305Y0024469D01*
X0005295Y0024622D01*
X0005289Y0024776D01*
X0005287Y0024929D01*
X0085287Y0024929D02*
X0085289Y0025082D01*
X0085295Y0025236D01*
X0085305Y0025389D01*
X0085319Y0025541D01*
X0085337Y0025694D01*
X0085359Y0025845D01*
X0085384Y0025996D01*
X0085414Y0026147D01*
X0085448Y0026297D01*
X0085485Y0026445D01*
X0085526Y0026593D01*
X0085571Y0026739D01*
X0085620Y0026885D01*
X0085673Y0027029D01*
X0085729Y0027171D01*
X0085789Y0027312D01*
X0085853Y0027452D01*
X0085920Y0027590D01*
X0085991Y0027726D01*
X0086066Y0027860D01*
X0086143Y0027992D01*
X0086225Y0028122D01*
X0086309Y0028250D01*
X0086397Y0028376D01*
X0086488Y0028499D01*
X0086582Y0028620D01*
X0086680Y0028738D01*
X0086780Y0028854D01*
X0086884Y0028967D01*
X0086990Y0029078D01*
X0087099Y0029186D01*
X0087211Y0029291D01*
X0087325Y0029392D01*
X0087443Y0029491D01*
X0087562Y0029587D01*
X0087684Y0029680D01*
X0087809Y0029769D01*
X0087936Y0029856D01*
X0088065Y0029938D01*
X0088196Y0030018D01*
X0088329Y0030094D01*
X0088464Y0030167D01*
X0088601Y0030236D01*
X0088740Y0030301D01*
X0088880Y0030363D01*
X0089022Y0030421D01*
X0089165Y0030476D01*
X0089310Y0030527D01*
X0089456Y0030574D01*
X0089603Y0030617D01*
X0089751Y0030656D01*
X0089900Y0030692D01*
X0090050Y0030723D01*
X0090201Y0030751D01*
X0090352Y0030775D01*
X0090505Y0030795D01*
X0090657Y0030811D01*
X0090810Y0030823D01*
X0090963Y0030831D01*
X0091116Y0030835D01*
X0091270Y0030835D01*
X0091423Y0030831D01*
X0091576Y0030823D01*
X0091729Y0030811D01*
X0091881Y0030795D01*
X0092034Y0030775D01*
X0092185Y0030751D01*
X0092336Y0030723D01*
X0092486Y0030692D01*
X0092635Y0030656D01*
X0092783Y0030617D01*
X0092930Y0030574D01*
X0093076Y0030527D01*
X0093221Y0030476D01*
X0093364Y0030421D01*
X0093506Y0030363D01*
X0093646Y0030301D01*
X0093785Y0030236D01*
X0093922Y0030167D01*
X0094057Y0030094D01*
X0094190Y0030018D01*
X0094321Y0029938D01*
X0094450Y0029856D01*
X0094577Y0029769D01*
X0094702Y0029680D01*
X0094824Y0029587D01*
X0094943Y0029491D01*
X0095061Y0029392D01*
X0095175Y0029291D01*
X0095287Y0029186D01*
X0095396Y0029078D01*
X0095502Y0028967D01*
X0095606Y0028854D01*
X0095706Y0028738D01*
X0095804Y0028620D01*
X0095898Y0028499D01*
X0095989Y0028376D01*
X0096077Y0028250D01*
X0096161Y0028122D01*
X0096243Y0027992D01*
X0096320Y0027860D01*
X0096395Y0027726D01*
X0096466Y0027590D01*
X0096533Y0027452D01*
X0096597Y0027312D01*
X0096657Y0027171D01*
X0096713Y0027029D01*
X0096766Y0026885D01*
X0096815Y0026739D01*
X0096860Y0026593D01*
X0096901Y0026445D01*
X0096938Y0026297D01*
X0096972Y0026147D01*
X0097002Y0025996D01*
X0097027Y0025845D01*
X0097049Y0025694D01*
X0097067Y0025541D01*
X0097081Y0025389D01*
X0097091Y0025236D01*
X0097097Y0025082D01*
X0097099Y0024929D01*
X0097097Y0024776D01*
X0097091Y0024622D01*
X0097081Y0024469D01*
X0097067Y0024317D01*
X0097049Y0024164D01*
X0097027Y0024013D01*
X0097002Y0023862D01*
X0096972Y0023711D01*
X0096938Y0023561D01*
X0096901Y0023413D01*
X0096860Y0023265D01*
X0096815Y0023119D01*
X0096766Y0022973D01*
X0096713Y0022829D01*
X0096657Y0022687D01*
X0096597Y0022546D01*
X0096533Y0022406D01*
X0096466Y0022268D01*
X0096395Y0022132D01*
X0096320Y0021998D01*
X0096243Y0021866D01*
X0096161Y0021736D01*
X0096077Y0021608D01*
X0095989Y0021482D01*
X0095898Y0021359D01*
X0095804Y0021238D01*
X0095706Y0021120D01*
X0095606Y0021004D01*
X0095502Y0020891D01*
X0095396Y0020780D01*
X0095287Y0020672D01*
X0095175Y0020567D01*
X0095061Y0020466D01*
X0094943Y0020367D01*
X0094824Y0020271D01*
X0094702Y0020178D01*
X0094577Y0020089D01*
X0094450Y0020002D01*
X0094321Y0019920D01*
X0094190Y0019840D01*
X0094057Y0019764D01*
X0093922Y0019691D01*
X0093785Y0019622D01*
X0093646Y0019557D01*
X0093506Y0019495D01*
X0093364Y0019437D01*
X0093221Y0019382D01*
X0093076Y0019331D01*
X0092930Y0019284D01*
X0092783Y0019241D01*
X0092635Y0019202D01*
X0092486Y0019166D01*
X0092336Y0019135D01*
X0092185Y0019107D01*
X0092034Y0019083D01*
X0091881Y0019063D01*
X0091729Y0019047D01*
X0091576Y0019035D01*
X0091423Y0019027D01*
X0091270Y0019023D01*
X0091116Y0019023D01*
X0090963Y0019027D01*
X0090810Y0019035D01*
X0090657Y0019047D01*
X0090505Y0019063D01*
X0090352Y0019083D01*
X0090201Y0019107D01*
X0090050Y0019135D01*
X0089900Y0019166D01*
X0089751Y0019202D01*
X0089603Y0019241D01*
X0089456Y0019284D01*
X0089310Y0019331D01*
X0089165Y0019382D01*
X0089022Y0019437D01*
X0088880Y0019495D01*
X0088740Y0019557D01*
X0088601Y0019622D01*
X0088464Y0019691D01*
X0088329Y0019764D01*
X0088196Y0019840D01*
X0088065Y0019920D01*
X0087936Y0020002D01*
X0087809Y0020089D01*
X0087684Y0020178D01*
X0087562Y0020271D01*
X0087443Y0020367D01*
X0087325Y0020466D01*
X0087211Y0020567D01*
X0087099Y0020672D01*
X0086990Y0020780D01*
X0086884Y0020891D01*
X0086780Y0021004D01*
X0086680Y0021120D01*
X0086582Y0021238D01*
X0086488Y0021359D01*
X0086397Y0021482D01*
X0086309Y0021608D01*
X0086225Y0021736D01*
X0086143Y0021866D01*
X0086066Y0021998D01*
X0085991Y0022132D01*
X0085920Y0022268D01*
X0085853Y0022406D01*
X0085789Y0022546D01*
X0085729Y0022687D01*
X0085673Y0022829D01*
X0085620Y0022973D01*
X0085571Y0023119D01*
X0085526Y0023265D01*
X0085485Y0023413D01*
X0085448Y0023561D01*
X0085414Y0023711D01*
X0085384Y0023862D01*
X0085359Y0024013D01*
X0085337Y0024164D01*
X0085319Y0024317D01*
X0085305Y0024469D01*
X0085295Y0024622D01*
X0085289Y0024776D01*
X0085287Y0024929D01*
D11*
X0077200Y0021589D02*
X0077200Y0020138D01*
X0074298Y0020138D01*
X0074298Y0021589D01*
X0074781Y0022073D01*
X0076716Y0022073D01*
X0077200Y0021589D01*
X0077200Y0019126D02*
X0074298Y0019126D01*
X0074298Y0017191D02*
X0077200Y0019126D01*
X0077200Y0017191D02*
X0074298Y0017191D01*
X0074781Y0016179D02*
X0074298Y0015696D01*
X0074298Y0014728D01*
X0074781Y0014244D01*
X0076716Y0014244D01*
X0077200Y0014728D01*
X0077200Y0015696D01*
X0076716Y0016179D01*
X0075749Y0016179D01*
X0075749Y0015212D01*
X0067200Y0014728D02*
X0066716Y0014244D01*
X0067200Y0014728D02*
X0067200Y0015696D01*
X0066716Y0016179D01*
X0066233Y0016179D01*
X0065749Y0015696D01*
X0065749Y0015212D01*
X0065749Y0015696D02*
X0065265Y0016179D01*
X0064781Y0016179D01*
X0064298Y0015696D01*
X0064298Y0014728D01*
X0064781Y0014244D01*
X0064298Y0017191D02*
X0066233Y0017191D01*
X0067200Y0018158D01*
X0066233Y0019126D01*
X0064298Y0019126D01*
X0064781Y0020138D02*
X0064298Y0020621D01*
X0064298Y0021589D01*
X0064781Y0022073D01*
X0065265Y0022073D01*
X0065749Y0021589D01*
X0066233Y0022073D01*
X0066716Y0022073D01*
X0067200Y0021589D01*
X0067200Y0020621D01*
X0066716Y0020138D01*
X0065749Y0021105D02*
X0065749Y0021589D01*
X0057200Y0021589D02*
X0057200Y0020138D01*
X0054298Y0020138D01*
X0054298Y0021589D01*
X0054781Y0022073D01*
X0055265Y0022073D01*
X0055749Y0021589D01*
X0055749Y0020138D01*
X0056233Y0019126D02*
X0056716Y0019126D01*
X0057200Y0018642D01*
X0057200Y0017675D01*
X0056716Y0017191D01*
X0055749Y0017675D02*
X0055749Y0018642D01*
X0056233Y0019126D01*
X0054781Y0019126D02*
X0054298Y0018642D01*
X0054298Y0017675D01*
X0054781Y0017191D01*
X0055265Y0017191D01*
X0055749Y0017675D01*
X0056716Y0016179D02*
X0057200Y0015696D01*
X0057200Y0014728D01*
X0056716Y0014244D01*
X0054781Y0014244D01*
X0054298Y0014728D01*
X0054298Y0015696D01*
X0054781Y0016179D01*
X0055749Y0021589D02*
X0056233Y0022073D01*
X0056716Y0022073D01*
X0057200Y0021589D01*
X0047200Y0021589D02*
X0047200Y0020621D01*
X0046716Y0020138D01*
X0044781Y0020138D01*
X0044298Y0020621D01*
X0044298Y0021589D01*
X0044781Y0022073D01*
X0046716Y0022073D01*
X0047200Y0021589D01*
X0047200Y0023084D02*
X0044298Y0025019D01*
X0045265Y0026031D02*
X0044298Y0026998D01*
X0045265Y0027966D01*
X0047200Y0027966D01*
X0045749Y0027966D02*
X0045749Y0026031D01*
X0045265Y0026031D02*
X0047200Y0026031D01*
X0047200Y0028977D02*
X0044298Y0028977D01*
X0044298Y0030428D01*
X0044781Y0030912D01*
X0046716Y0030912D01*
X0047200Y0030428D01*
X0047200Y0028977D01*
X0047200Y0031924D02*
X0044298Y0031924D01*
X0044298Y0033375D01*
X0044781Y0033859D01*
X0046716Y0033859D01*
X0047200Y0033375D01*
X0047200Y0031924D01*
X0047200Y0034870D02*
X0044298Y0034870D01*
X0044298Y0036321D01*
X0044781Y0036805D01*
X0045749Y0036805D01*
X0046233Y0036321D01*
X0046233Y0034870D01*
X0046233Y0035838D02*
X0047200Y0036805D01*
X0037200Y0032876D02*
X0035265Y0032876D01*
X0034298Y0031909D01*
X0035265Y0030941D01*
X0037200Y0030941D01*
X0036716Y0029930D02*
X0034781Y0029930D01*
X0034298Y0029446D01*
X0034298Y0027995D01*
X0037200Y0027995D01*
X0037200Y0029446D01*
X0036716Y0029930D01*
X0035749Y0030941D02*
X0035749Y0032876D01*
X0036233Y0026983D02*
X0036716Y0026983D01*
X0037200Y0026500D01*
X0037200Y0025532D01*
X0036716Y0025048D01*
X0035749Y0025532D02*
X0035749Y0026500D01*
X0036233Y0026983D01*
X0034781Y0026983D02*
X0034298Y0026500D01*
X0034298Y0025532D01*
X0034781Y0025048D01*
X0035265Y0025048D01*
X0035749Y0025532D01*
X0034298Y0024037D02*
X0037200Y0022102D01*
X0037200Y0021105D02*
X0037200Y0020138D01*
X0037200Y0020621D02*
X0034298Y0020621D01*
X0034298Y0020138D02*
X0034298Y0021105D01*
X0034781Y0019126D02*
X0034298Y0018642D01*
X0034298Y0017191D01*
X0037200Y0017191D01*
X0037200Y0018642D01*
X0036716Y0019126D01*
X0034781Y0019126D01*
X0034781Y0016179D02*
X0034298Y0015696D01*
X0034298Y0014728D01*
X0034781Y0014244D01*
X0035265Y0014244D01*
X0035749Y0014728D01*
X0035749Y0015696D01*
X0036233Y0016179D01*
X0036716Y0016179D01*
X0037200Y0015696D01*
X0037200Y0014728D01*
X0036716Y0014244D01*
X0044298Y0014728D02*
X0044781Y0014244D01*
X0045265Y0014244D01*
X0045749Y0014728D01*
X0045749Y0015696D01*
X0046233Y0016179D01*
X0046716Y0016179D01*
X0047200Y0015696D01*
X0047200Y0014728D01*
X0046716Y0014244D01*
X0044781Y0016179D02*
X0044298Y0015696D01*
X0044298Y0014728D01*
X0044298Y0017191D02*
X0044298Y0018642D01*
X0044781Y0019126D01*
X0046716Y0019126D01*
X0047200Y0018642D01*
X0047200Y0017191D01*
X0044298Y0017191D01*
X0027200Y0017675D02*
X0027200Y0018642D01*
X0026716Y0019126D01*
X0026233Y0020138D02*
X0024298Y0022073D01*
X0025749Y0020621D02*
X0027200Y0022073D01*
X0027200Y0023084D02*
X0024298Y0025019D01*
X0024781Y0026031D02*
X0025265Y0026031D01*
X0025749Y0026514D01*
X0025749Y0027482D01*
X0026233Y0027966D01*
X0026716Y0027966D01*
X0027200Y0027482D01*
X0027200Y0026514D01*
X0026716Y0026031D01*
X0024781Y0026031D02*
X0024298Y0026514D01*
X0024298Y0027482D01*
X0024781Y0027966D01*
X0024781Y0028977D02*
X0026716Y0028977D01*
X0027200Y0029461D01*
X0027200Y0030428D01*
X0026716Y0030912D01*
X0027200Y0031924D02*
X0027200Y0033859D01*
X0027200Y0031924D02*
X0024298Y0031924D01*
X0024781Y0030912D02*
X0024298Y0030428D01*
X0024298Y0029461D01*
X0024781Y0028977D01*
X0024298Y0020138D02*
X0027200Y0020138D01*
X0027200Y0017675D02*
X0026716Y0017191D01*
X0024781Y0017191D01*
X0024298Y0017675D01*
X0024298Y0018642D01*
X0024781Y0019126D01*
X0024781Y0016179D02*
X0024298Y0015696D01*
X0024298Y0014728D01*
X0024781Y0014244D01*
X0025265Y0014244D01*
X0025749Y0014728D01*
X0025749Y0015696D01*
X0026233Y0016179D01*
X0026716Y0016179D01*
X0027200Y0015696D01*
X0027200Y0014728D01*
X0026716Y0014244D01*
D12*
X0026550Y0044215D02*
X0026550Y0046017D01*
X0027151Y0046617D01*
X0028352Y0046617D01*
X0028952Y0046017D01*
X0028952Y0044215D01*
X0026550Y0047872D02*
X0026550Y0049073D01*
X0026550Y0048472D02*
X0028952Y0048472D01*
X0028952Y0049073D01*
X0030153Y0048472D02*
X0030754Y0048472D01*
X0030754Y0050928D02*
X0030153Y0050928D01*
X0028952Y0050928D02*
X0028952Y0051528D01*
X0028952Y0050928D02*
X0026550Y0050928D01*
X0026550Y0051528D02*
X0026550Y0050327D01*
X0027151Y0052809D02*
X0028952Y0052809D01*
X0027151Y0052809D02*
X0026550Y0053410D01*
X0027151Y0054010D01*
X0026550Y0054611D01*
X0027151Y0055211D01*
X0028952Y0055211D01*
X0029553Y0056492D02*
X0027151Y0056492D01*
X0026550Y0057093D01*
X0026550Y0058294D01*
X0027151Y0058894D01*
X0029553Y0058894D01*
X0030153Y0058294D01*
X0030153Y0057093D01*
X0029553Y0056492D01*
X0027751Y0057693D02*
X0026550Y0056492D01*
X0071946Y0054717D02*
X0072547Y0054717D01*
X0073748Y0054717D02*
X0073748Y0054116D01*
X0073748Y0054717D02*
X0076150Y0054717D01*
X0076150Y0055317D02*
X0076150Y0054116D01*
X0076150Y0052862D02*
X0076150Y0051661D01*
X0076150Y0052261D02*
X0073748Y0052261D01*
X0073748Y0051661D01*
X0072547Y0052261D02*
X0071946Y0052261D01*
X0073748Y0050380D02*
X0075549Y0050380D01*
X0076150Y0049779D01*
X0075549Y0049179D01*
X0076150Y0048578D01*
X0075549Y0047978D01*
X0073748Y0047978D01*
X0073147Y0046697D02*
X0075549Y0046697D01*
X0076150Y0046096D01*
X0076150Y0044895D01*
X0075549Y0044294D01*
X0073147Y0044294D01*
X0072547Y0044895D01*
X0072547Y0046096D01*
X0073147Y0046697D01*
X0074949Y0045496D02*
X0076150Y0046697D01*
X0075549Y0056572D02*
X0074348Y0056572D01*
X0073748Y0057172D01*
X0073748Y0058974D01*
X0076150Y0058974D02*
X0076150Y0057172D01*
X0075549Y0056572D01*
D13*
X0069050Y0047894D02*
X0064050Y0047894D01*
X0064050Y0036894D01*
X0069050Y0036894D01*
X0069050Y0047894D01*
X0063134Y0047939D02*
X0058134Y0047939D01*
X0058134Y0036939D01*
X0063134Y0036939D01*
X0063134Y0047939D01*
X0043450Y0049894D02*
X0043450Y0044894D01*
X0032450Y0044894D01*
X0032450Y0049894D01*
X0043450Y0049894D01*
X0043427Y0051661D02*
X0032427Y0051661D01*
X0032427Y0056661D01*
X0043427Y0056661D01*
X0043427Y0051661D01*
X0043448Y0058260D02*
X0032448Y0058260D01*
X0032448Y0063260D01*
X0043448Y0063260D01*
X0043448Y0058260D01*
X0020563Y0013000D02*
X0080563Y0013000D01*
X0080563Y0003000D01*
X0020563Y0003000D01*
X0020563Y0013000D01*
D14*
X0078824Y0041661D02*
X0078826Y0041708D01*
X0078832Y0041754D01*
X0078841Y0041800D01*
X0078855Y0041844D01*
X0078872Y0041888D01*
X0078893Y0041929D01*
X0078917Y0041969D01*
X0078944Y0042007D01*
X0078975Y0042042D01*
X0079008Y0042075D01*
X0079044Y0042105D01*
X0079083Y0042131D01*
X0079123Y0042155D01*
X0079165Y0042174D01*
X0079209Y0042191D01*
X0079254Y0042203D01*
X0079300Y0042212D01*
X0079346Y0042217D01*
X0079393Y0042218D01*
X0079439Y0042215D01*
X0079485Y0042208D01*
X0079531Y0042197D01*
X0079575Y0042183D01*
X0079618Y0042165D01*
X0079659Y0042143D01*
X0079699Y0042118D01*
X0079736Y0042090D01*
X0079771Y0042059D01*
X0079803Y0042025D01*
X0079832Y0041988D01*
X0079857Y0041950D01*
X0079880Y0041909D01*
X0079899Y0041866D01*
X0079914Y0041822D01*
X0079926Y0041777D01*
X0079934Y0041731D01*
X0079938Y0041684D01*
X0079938Y0041638D01*
X0079934Y0041591D01*
X0079926Y0041545D01*
X0079914Y0041500D01*
X0079899Y0041456D01*
X0079880Y0041413D01*
X0079857Y0041372D01*
X0079832Y0041334D01*
X0079803Y0041297D01*
X0079771Y0041263D01*
X0079736Y0041232D01*
X0079699Y0041204D01*
X0079660Y0041179D01*
X0079618Y0041157D01*
X0079575Y0041139D01*
X0079531Y0041125D01*
X0079485Y0041114D01*
X0079439Y0041107D01*
X0079393Y0041104D01*
X0079346Y0041105D01*
X0079300Y0041110D01*
X0079254Y0041119D01*
X0079209Y0041131D01*
X0079165Y0041148D01*
X0079123Y0041167D01*
X0079083Y0041191D01*
X0079044Y0041217D01*
X0079008Y0041247D01*
X0078975Y0041280D01*
X0078944Y0041315D01*
X0078917Y0041353D01*
X0078893Y0041393D01*
X0078872Y0041434D01*
X0078855Y0041478D01*
X0078841Y0041522D01*
X0078832Y0041568D01*
X0078826Y0041614D01*
X0078824Y0041661D01*
X0022447Y0061346D02*
X0022449Y0061393D01*
X0022455Y0061439D01*
X0022464Y0061485D01*
X0022478Y0061529D01*
X0022495Y0061573D01*
X0022516Y0061614D01*
X0022540Y0061654D01*
X0022567Y0061692D01*
X0022598Y0061727D01*
X0022631Y0061760D01*
X0022667Y0061790D01*
X0022706Y0061816D01*
X0022746Y0061840D01*
X0022788Y0061859D01*
X0022832Y0061876D01*
X0022877Y0061888D01*
X0022923Y0061897D01*
X0022969Y0061902D01*
X0023016Y0061903D01*
X0023062Y0061900D01*
X0023108Y0061893D01*
X0023154Y0061882D01*
X0023198Y0061868D01*
X0023241Y0061850D01*
X0023282Y0061828D01*
X0023322Y0061803D01*
X0023359Y0061775D01*
X0023394Y0061744D01*
X0023426Y0061710D01*
X0023455Y0061673D01*
X0023480Y0061635D01*
X0023503Y0061594D01*
X0023522Y0061551D01*
X0023537Y0061507D01*
X0023549Y0061462D01*
X0023557Y0061416D01*
X0023561Y0061369D01*
X0023561Y0061323D01*
X0023557Y0061276D01*
X0023549Y0061230D01*
X0023537Y0061185D01*
X0023522Y0061141D01*
X0023503Y0061098D01*
X0023480Y0061057D01*
X0023455Y0061019D01*
X0023426Y0060982D01*
X0023394Y0060948D01*
X0023359Y0060917D01*
X0023322Y0060889D01*
X0023283Y0060864D01*
X0023241Y0060842D01*
X0023198Y0060824D01*
X0023154Y0060810D01*
X0023108Y0060799D01*
X0023062Y0060792D01*
X0023016Y0060789D01*
X0022969Y0060790D01*
X0022923Y0060795D01*
X0022877Y0060804D01*
X0022832Y0060816D01*
X0022788Y0060833D01*
X0022746Y0060852D01*
X0022706Y0060876D01*
X0022667Y0060902D01*
X0022631Y0060932D01*
X0022598Y0060965D01*
X0022567Y0061000D01*
X0022540Y0061038D01*
X0022516Y0061078D01*
X0022495Y0061119D01*
X0022478Y0061163D01*
X0022464Y0061207D01*
X0022455Y0061253D01*
X0022449Y0061299D01*
X0022447Y0061346D01*
D15*
X0020444Y0060362D02*
X0020444Y0063315D01*
X0013948Y0063315D01*
X0003712Y0057409D02*
X0003712Y0045598D01*
X0013948Y0039693D02*
X0020444Y0039693D01*
X0020444Y0042646D01*
X0081941Y0042646D02*
X0081941Y0039693D01*
X0088437Y0039693D01*
X0098673Y0045598D02*
X0098673Y0057409D01*
X0088437Y0063315D02*
X0081941Y0063315D01*
X0081941Y0060362D01*
D16*
X0055960Y0060335D02*
X0055960Y0050492D01*
X0048086Y0050492D01*
X0048086Y0060335D01*
X0055960Y0060335D01*
X0055960Y0050492D01*
X0048086Y0050492D01*
X0048086Y0060335D01*
X0055960Y0060335D01*
D17*
X0056140Y0061013D02*
X0056142Y0061046D01*
X0056148Y0061079D01*
X0056158Y0061112D01*
X0056171Y0061142D01*
X0056188Y0061171D01*
X0056209Y0061198D01*
X0056232Y0061222D01*
X0056258Y0061243D01*
X0056286Y0061261D01*
X0056317Y0061275D01*
X0056348Y0061286D01*
X0056381Y0061293D01*
X0056415Y0061296D01*
X0056448Y0061295D01*
X0056481Y0061290D01*
X0056514Y0061281D01*
X0056545Y0061268D01*
X0056574Y0061252D01*
X0056601Y0061233D01*
X0056626Y0061210D01*
X0056648Y0061185D01*
X0056667Y0061157D01*
X0056682Y0061127D01*
X0056694Y0061096D01*
X0056702Y0061063D01*
X0056706Y0061030D01*
X0056706Y0060996D01*
X0056702Y0060963D01*
X0056694Y0060930D01*
X0056682Y0060899D01*
X0056667Y0060869D01*
X0056648Y0060841D01*
X0056626Y0060816D01*
X0056601Y0060793D01*
X0056574Y0060774D01*
X0056545Y0060758D01*
X0056514Y0060745D01*
X0056481Y0060736D01*
X0056448Y0060731D01*
X0056415Y0060730D01*
X0056381Y0060733D01*
X0056348Y0060740D01*
X0056317Y0060751D01*
X0056286Y0060765D01*
X0056258Y0060783D01*
X0056232Y0060804D01*
X0056209Y0060828D01*
X0056188Y0060855D01*
X0056171Y0060884D01*
X0056158Y0060914D01*
X0056148Y0060947D01*
X0056142Y0060980D01*
X0056140Y0061013D01*
M02*
