%
M48
M72
T01C0.01200
T02C0.03500
T03C0.11811
%
T01
X18350Y9094
X39350Y33094
X39950Y36594
X45563Y42782
X48350Y40094
X54350Y44094
X60450Y49275
X70850Y46794
X72865Y57409
X84950Y49594
X95350Y51094
X95350Y46094
X95350Y56094
X66550Y34894
X60650Y34994
X29350Y42094
X25450Y43194
X26109Y49535
X7350Y51094
X7350Y47094
X7350Y56094
X82350Y8094
X86350Y8094
T02
X75563Y8000
X65563Y8000
X55563Y8000
X45563Y8000
X35563Y8000
X25563Y8000
T03
X11193Y24929
X91193Y24929
M30
